/* XPM */
static char *_34f938047014f9ad028dc97f3093ae3GWdApChm7YU4rqd1[] = {
/* columns rows colors chars-per-pixel */
"128 128 30 1 ",
"  c gray23",
". c #3C3C3C",
"X c #414141",
"o c gray27",
"O c gray29",
"+ c #4E4E4E",
"@ c #535353",
"# c #555555",
"$ c #585858",
"% c #5D5D5D",
"& c #626262",
"* c #676767",
"= c gray42",
"- c gray43",
"; c #727272",
": c #767676",
"> c gray47",
", c #7E7E7E",
"< c #838383",
"1 c gray52",
"2 c #8B8B8B",
"3 c gray56",
"4 c #909090",
"5 c gray59",
"6 c #989898",
"7 c gray61",
"8 c gray63",
"9 c #A4A4A4",
"0 c #A9A9A9",
"q c gray68",
/* pixels */
">4454<32<1431,=,22232<1<242362>>166112,:-12<>22<>,13:><23<43111:<<2<<1<,<:;$&*-1324,1324532,,:,>>=-;>>-,-#=,><:>,>>,31,;;;;:2586",
">3451241<<31<:=<1211211<432543:><42<111;;>11142;-:12==;:1,;:=%#$+%=;:=**$@###&139895263577554243234352251=25657663358411,,2<,4q0",
",><2:,41>>2<:;*,:>,23<1154263411222231<;-,<<,,1;&-;,;*&287363,>:=&&==*;&**+$O-43555532>25642145432,11<11>=<6325223123>,3>:1,,508",
">-=>>,11,:,,>:=-:,3322<;1><613267456452,,<312<22:--,:-,441<1<33><;&----*-&###,6125666513545<,3312<<>,<>::*,75322112341<1,:,<3799",
"-;--:<<:,:22<;=-<2323422,<131,<567654462534643471:<3,,452>1,231152<=;:==&=$@&-2<,<453531124<12,,,<<<<,,>:&<43431<<154<<,>,,25698",
"-:::;:1<,>222<;;21<23532<12,,<36554636877342135432151:11,2<,31<1322;-:;==-##$=<1<>132,,2133:<2<,3<:>>:1>>&>3<11<<<,34><:><253709",
"=-*;;-254,,11>-;1<>>,>>>;:;<<36655787655533311541234:<41,<,1:2336311>*==;=$$%%,:>->21>:<232:,<:>1>;>,;,;;*;111<1<,,13,,><4653400",
"&;-;=;>332::<;=:>:-;,::;---><35435765643223333551143>173<<3<,<3362122,--*%$$$#>>;<,13<:>,<<;,1,,:>;;*>>&%#;121<,>>;<4:;:24422358",
"*:>>--;-:<;:>-*-:;&->:;=;;;:>1242344312224442354<<14,:51233321<>4221231,&$$$=$->-,:<11,>,<>:>>>-,<==;-%$*&:3><,>:;->2;->34211<24",
"-:;=;=;==;-;:;&&---=:>>=-::>13142353431133333322>,24:>21,,1<13,,64,,1211:%+@*$-,::><1<,<,<,>>;;:,;%*=&*&%$;21<<=-==>>-:<33112133",
":,==-*=;=:;><-=::==*;;::>,>-,411223125224123211><13>;==341>,1<,,531<12111-+#*%,<>>,<<><<<31:<>>>>-*=&=&&&$;1<>:*===::,1<4442,234",
",1,>,,>1>,;;;@+=:-$&-%*;=*%%<>;1221<1<<3321<21,:332,=$+><;>,,<:<211>,<,<2>=*-*::--:<,;;;:<>---;-=-*===$$#$-,;=%&&=-;->><24431367",
"=>,>:::,;:>,=&%-:,=:<-,>-::,<,,,2<1<2<,111<>,>1<,12>%+@-:&=,><:>11<:,<>,11;-1--*%%-:>=*--;=&%++#&$+O++oO X$-==#%&%$%&;;-:<<,<<24",
"=>>,:---&;::=%+$-=-;-&:-:%#-1<2,212232>,2<1>,,1<-<<1*@$;>=*;><,;4<-,><<,,,==4,:&;:<:;>,,;>,*:$%#%##%&#$#OX%=&=*&&&$=&:<:<2232<23",
"*:,>:;;;->:;-%##=&;:-=%&-=$&23411243>1,<<,<,,,,>:,,,&%;>;=:=:>>:61>,;>,>,:&&,3,=><>>;<>;;,,&-$#@#%@**&$#@o$>>*$***%*$:;:,11<,<22",
"*,>::;;>;>;==##=-;=*=-*=-:;*,51,4576,12:;:,<1,>::>,:=-->-;--:-=:42<;=::,>,=&>1,=<::>>:1<;,1-&&##@*%$&&%+@@*;;-=*-*%-*:;:,121,<13",
"=,,:;;;:-,:;&&@*&=*&*-==:;:->52<854442,<11<:,,<,>:,:*,>>*--;==:;3<::;;,,>--;<<,:1<2,;,3311>&#$$$$%-=&&&$#@&-%:=$-*=:=:--:122,<23",
"=,<>:>;;>1>;-&O&:*%==-;--=,;>45276552<,>,;:31>>,::,,*-<>;:;-*:,:<1-;>>:,,,>;,31,>,1,;<12,33%*&*&&&*:*&%%$O*-=-&%;**,=-->>,13,,34",
",,,>:>:,1<,::;#%;-**=*===;;;,23176531,12<><<,:>>:;::$=:>>;:>>>:><,:>1>;;15,=<2,;><>::<>::4<%%&$&&$%&*&=&#+=-=&*=--*:*-:=;<134125",
">1,,>,-,<1>;>=*==*=&==&*-=%;<24<23123,,4<,,,1<>:,;;&$::;;;::1,;:1,;:<,>;>,;=23,><::1:,;>>1>*%;;**--%&***%#****;=*-->*--;;:234435",
":<<<,<;>31<:;>*=*-=--==:;-**>>6135313321,<:>31>;,-*&$;:--:<>,::;<,;:,:><21;%56<>>,1<;;<113<*&;;-;=-;-=$--#%-;-=*--=<=;;;:,555476",
"&;;-:;-->:;**%O****-*&=*&&*$&;<>,11,>,:;>>;::--;;;;*#==&*-;;*&=-<;=;*&=:-*$@::-=-;;--;>,,>:#%-=*&*=-**$&%O%=-*&%==-,&=:-*;212232",
"o###+$%+#*&#@+.++@++#%@O@+##;<1<>,,,>;,:>>,:;;>:==;*@&&&%*&&&*$*:&#%@$**&#Oo&**=-*&=--;-=&&o#@$$$&*$%##@o.@#@@$$$$%=#*%%%=>;*;;:",
"*;;:==&#$&=$+@XO#%$%&%#&&&==,2<3<><1<<132<<:<<1>>:>:$=;>,;;>>:,:3;+=-=--=*&@-*-:=-=--:;-&&%O*&&*-;::%%%$@O%=%&&$##=-&:==>>,3>2>>",
",>,==;*#@-=&$%O@*%*&*%%=;&*=:23221<<1,132<1,,22,<,,:*>:=>><<,,,,5>@;:*->::*%-:::*=---;;*==*$>-=;:;,<*--*$#-;;-;&%*;&=,>:,<3<,32<",
"-;:;;::;+**%&@o**&&&%$==::;-;,4113<<>,24213223211<,<-;>-;:<<>,,,6,@=:&=::>-*:<21-;-,;=;=:,=*<;;=&;<;>;=&%#;,>;=-:-&==,;,,>54<342",
":-;:--:;%%*=-$+=*#$**=:;-::;:>13221<,<13122342122<1<:><,:1<:>,1<6>#=:**:><,*;<<,=:,,<,<>=-;:1,><;;-:1;==:&><;;:,>$%<&-=:>:221123",
",<>>>;:&-==;&%+==$&%&@--;>>,<122<21,,<<3234321111,<1&;<2>><>,,><4,$%>>&;,::=>1<>;>322<<>-*&:1,1>:,=><>:->%:::,::=-;3::;:<1543322",
"::;;,;:;=-;=%%#%;;&=$&=:<--;>223<,,;<1,22124<2>>1,1,=;:1<>1,:;:,4>#$;<=-,,**>153,,,51<,,;:=;>:>-:3,;,<<,;=;>:,::1541<<,,,;,1,<2<",
";>-:,:;-=*-;*&o%--->;=:<,,--,,>1,<,:>><2232221,1321,=>,>:>>:-::>1<%*->;-<<;=>12,<1,2<1<23<;>:-;:><:<;,11>1&*,>22222,;3,>>-;,<1,,",
"::>:>>:>:-:,-*#&&&%-%$-:>:-;2,>323<21<<1343322122<22:><:*::-:>;>6;=:>;;,2<:*151:<53<12223<;;;:->;,,<;;-;>>*;>>3:;,>-*>;-,1,>6412",
"<;>,;<,;::1:>%o%=%&&&&=*::;;<<><2<,123<34<<21,321,<<;1>:::,:>:;>8-=:1<><:,,=,121<13<132423,-:=;>=2><><><<=&=%:--::>>>;<<333<4644",
">><;:;::-=:>-%o%&&&%=;=-,:>:,><43<,,13223112<>,<2211>31,;=;;:;;,3-;>131,::>:<1122221122222,=;>,,:<:;;,:,--;3,1241;11<,>:32,,2<<2",
"1<1::;;:;-;>&&+%%==;=;-,::;:<1:1<<,32234221,>22<321<*;>,,;>:,:><2--<2421<<;;>144233>11,114>&>:<,-,:->11:%--125<21<:=;<<1,<,<<114",
">:<,,>:,-;;:&%O*-==>;--:;;,>><><,<<233234<<><4322<1>=;:>,,1,,;:12*=>21<<>>:-:<4112,,2<>,43,-::>:=:,::;,,;->,>4:;23<:,,2112><3215",
">:>;::;>>,;>,-@*=-%%*-=:<,1<11>,,31<<2<,221<22111<1,*-,>;:=-;::2:*=:,>::;=;&=<,,1,<>:;;,1>&=-:1:-:*&-:,:;-;-;1;*,11<:<:>251231><",
";>:=;=->:;=:-$#;;&=-==%&==->><><>,,<<11112<;>,<,>:<:&->-==-:;;;<,*&;,-:>---*=;>:>1,,*-;,1-=:-><,,:=;-:-<-&*<:,1,*-11131>351,11<<",
">>>>>;,<->;:-::1<<2<><,--=-*&,142<1<:>>>><>>,;;-;;>*+==>,>,,>:<:3<;,,:,>,>:;,<1<,>><:,,12>-13221<>><;;->,&-1;-;>,,1<>,,>234,2354",
";>:----;;>:;=;;><<32<,:-:=;;-,3657654322<1111>,211,&#;-:1>,<,>114<,>::;>,,<>131121<111453<;32331,,>:>>2<2,>,,<,><:--:,>,<<511254",
"1>1,>,><<2<,<<3,-;;;,>;=**%=&>1<<11<21<,<<1,>,;;:=$@#,=;,,,,,,135,>>:>=>>><><411<<<<>1421<:>>43223233<211:>13<,,;<:1231114521544",
"2;>;-,:>,,>:,<13>1;;<,1>==-**<64,<>,25645554321<,;&#+*-->>>,>:,34,;;:;&-;>,,<12<2,><23243<;,<53424542>11<;;><<,<-,<1333<24621333",
">=-;::;-:;--:<37,>-,,11,;>::=:53,,;:<344333352322>=&@$$#*&;:>,><3<;-::**=::>,12361,1342441>23<32>24122<:>;==;:-,=:2<1<3225432122",
">,>>,;:>>;-:><44:>,,:<<;:-:<=:42,,::,<<133211231,:==%=-=-=-=;>>12,;;-;***$-:>,<34>1212343>:<1,1<,<11112,;;-*--;,:12,<32314533135",
":;:2,,><<,><2:<4=->1<<:;;=-:;>31>>>-:,<<232122<2,:*=&:1,-&=*=::,1>-=:;=**%=;::1<133322211,,:1;>2<1><11<,-;;:=;1>11,>123331463343",
";><<1<>::>-<<<21;>:31<>;==&-:>21;;:;>11,,22133<<,:**%-2,;-=-=&=>1;==-:;-%%==;:>12445333,<1:>2,,<<41>11>:>-=:;>,>1,,>214332243343",
"<12,<>;--;-;>232131112:-==**%=32:,:;<<<<<>,2321,,;&%&:2,,,=**==-1=*-=&**%%&*:,;<325546312>-<343,,431,,:::*&;>:,<<1,:<<3332222142",
">;1,;-=:--=-;<41><>144::;-$&*&2<;<>:,<<<<1,13121>;&*%>:>><>-=--=,=&*-%%*%%&%&>:><11:>231<>-1233,2<<,1<,,-&*::;:1<11>=<2443431232",
">><---=-&*---:33:>>33<:-**$**&<<,<:;,111242,<11,:-%=%:-;<<>---;,4>-*=-&&&&%*=;%=-;-><<1,<<-<2312322<11<;;;==-;;>;&=-=,2355432>,1",
";*>>;==**-:;:<31,,,772>;,<-:;*>,;,:=;1<1<12,<,>>>=%=&;:>,,;--;:15,-<*%=&=&&=&&#%%;;>,,2,<<=>3345233332,*-&*;-=%=**%=>>,2131:;==<",
"=$><>---**--;,33;24471-*>:,,:;1>=<<;<11,<1<,:;;:;*&*&:<,;>:;;::,3:;>;;-%&=%*#+#&*-;;;>,>>>->1266243<<1<<;%=*&&*&==:-;;>1233;*=><",
"==;:=&&&$&&**;<,&2211;**=*>>*=2<=:::<<13<,>::>,>:&%&*,<,<:>>>:>>,:>>>>;;==%%%$%%&*=:*;:>:;;,<,233221,231>*%#$&--><1,:,<<231>&=<,",
"&$%%%#$%%*==;>,>;><<;:$*-%&&@@><&-&*:,,,>,>;;:;:-&***:,<>:<>;;><,;-::;;-=*$***:>;-->,>>:;-;,2,<23422221,;+$&=-:><,<1::111,>>;=;,",
"%+@+@+O#$$&$@#=*$%=##OO$###@O$--%*%&->:::>>;::;;-=&%#;>;=:,--;>,<------&%#+%&-::;;;;:,==;-*>21:53512<2,-&@$=;-:>;;:;,1<21>>::;;>",
":++@##$&%###%*-=#=*$%@#&%&-$+%:-&*=::>>:;:::>:>--&$Oo%*%%%%&%&&*;&#&*&$@@@O&--=-&====%##%##====<;;;&*-&*#O#%#%%%@#++@%;:>;-:=*-:",
":@$%==-&=;-=-,<,*&;*:%$*#=;&%&:;&=*=:::>::-;>;-;;*%@+$%*&&&%%==--%$*-=%@+@+*;-:=*->-=##$$$$*;*&>;--&-=*$&O$*%=*&$&$&#$:><-=:-=:-",
":+%*%&;-==:-=>1,===*:&=&$&;*%*,-&==--;:;::::-;---*%++$#**=*&$=---*&&*%&#++@*-;-=-;;==$#$%=*$*=;;**-;;-&#-%%--;::;-->;>,,1::,>,2>",
";#%&*=*-----:-,,--&%;;,=%=;%%*:-***-;-:;;;><>;::;=&@O%-**-;==&-=-*&*=*$$#@#*;>--:::*&%#&*;-#&-;-*%-;==-=-%*;;:;---;-><<4<>,1321,",
";$*==;=*=--==;1,;;-:&::*==-$$$-:==---::;;;::>-;-;;&##&:*==-==&--=**-*&%$##@*;;:>;;;=&&$*-::$-:=%;:;==;-*&%->>><>,-%*,12722<,233,",
":%=&-;=-->:-=:2>-=;-&=-&%%*&&&:-->:-=;>>>>,:;--:;>=##=:;;&**===-;=&**&*=&#@->;;-:;*&$*=-:>;$*,:*--:;:>,=*&-,<1:<>:&=<,16413<2212",
";-&&;;--*--=-:>:%&&=-=&;*;-=*%=;-;,;:,,,,,>:;;;>--*%#=:;;=**=->-:=-=&=-==%$&-;*==*%=$&-:>:;*;>::=;;->:,*==-:>,--;;:,,<<431<343,<",
">-%*-==*&-;;-><:**%%==&==--*%$=;&-:;>>>,>>:;-;;;:=&$$--;-=====;;>;-=&==;$%%;-;--;*%#%&;:><>*=:;:>,-:,;:=**-,<,;;-;1<<<<2211421,,",
">$&&=;*=-=;;-=2>*%*%%=-&%%%#+@&;*==-:>,>,,:::::;==*%#%=;==-;--;=,;&-=**$%$#;-:;-&%$%**=;;::-:-;*;,:;,>>=;=;33<<;,,111,232<233>;>",
":*;-=;-;;;;;;>42:>;=&--;&;:;*&>,;;;:,<11<<<<,,>>;--%$&-=%=;::,>*;;*;;==%=&%-::-=*%$%;-;;:;;;,===$&-=:::-,=-<144<:<3<<23443544>:,",
":%><::>:;,<>>1742,>>*>2::<44>>651,<,13453332334221:==;:>-;,>>,,;:-=-;-=-;&&,<,<,<-*->,>13<,<42,:;*&%%%=&>::21,,,<,1<>2335264<<<,",
"-*:;;=-*%*;;:-13>;*-%=;*:-:,==1<;>:><>222<1,1<<,<>;=&=>:;;;-:-&--*-==*&=*&%::::><&*-::,1<:,=-,2,2<;;*==&,;:<<>,<131<,2646455---:",
";*--*%-=*====-2<:;$#*=*=:-:==*<>-:;;:,<,>,,><<,>>;=&%=::=;;*-=---*=-=%&&%&%--->,:%*-;:::;::@%&*==:,>>:=%-=>33222432325755656:*>>",
":$====:=;:;-*,2>;=%$%&=%->>;-=<<;;>>>:,>>,,<,,,:::=%$>:=&-==-=:;;&%=*&*%&%%;;:,>-&->---:>:;$*-=;==&==*%@&=:34442521344564564:,2:",
";$,*-:&=--:=-><<-**==&=-;=,;-:,>-;>>,>>,<,:,1:::;::=$;=*****==:;;=-=*&&%%$%;><,<=&;;=;->,:,;--:;;:&@%*-=;;;343313123:;5654<>,,<<",
";%,=**==-=&-;;,,:=**=&;->>:%:-;,:;,;,<,,,>>,,:::;:,-%;=*-=*%*--;;&**%%&*&%&=;:-=--=;;-:>:-,:;<>:,:=*<,>=-*;245312236247761;;,111",
":&;;=**=-=*=-:1>-*=*&-=-,:-->-,<::,;,,:,>,>,,>>>>:,-*-*::;&**-=;>-&*=*&*%%$*=;&&-&*-;;--:><*=<21,&;<;=;;*=-32<4,144654682-,<<>11",
"-=>==;*=**;-*:3>==:*-:*;,;;--><<-;;><>><1>>:>,,1>::*&=---*&***==:--*==#$*%$=;>*&*&;>-&**=;1;=>1<*$&&%=>-*=;21>1224435765;:<;<2<,",
"-;,;=*:=*:>;;;,<-->-*-&:;*==;>,,-,>:>>,12>,>>>:,,::=#*;;----&*$;:%&=;-%&&&%-<;%&&*-;*&*:,><,-,1>::;=:>;=**>2,13335546674,:,>,><,",
"-=:,:-;-=;:-&;3,;*-**-;::-*;:>1,:,:<::>1,->1<>>:,::;%==-;-;---&>,-%*:-&%$%&=>:*=-=%*;==;,,1:::<-;,<>>,1*&=:4<3<22335552:;::<1,,,",
"=-#==;>><;=#+$1>:-*,:=::>---=>2>>>>>>>,:>;,<11:;>,>=*:=*>;-=*;;-:-=*=&&&$&$&>>;*&%%#%%:<,,,-=:<::<,>-1,:&*>5352,32263>*=;::,,,>,",
"$$$%&&:---%&#&>>>&&<:;-:;=:-->,,:-;-:>,<>;:;;>>:;-:*%-*=*&*=**&*=*;;=&&%%&$&;---&#$&*:<2,1>=->><<<,><1:*-&:4533212473-->,>:>:;>*",
"#**&-::=&=-&&:<-%$&=&%*&=&*&%=;*===&=&=*&=*&=*-*&&&$@$%$$#@$%##%*#$&##@@$@+@#@%%%@$&==;-;;=%*:;:--:::--=%#$;>::>;:,,:*&=*;&*:;=*",
"-<>>21,:;,,;>34>=:,-==>1>:>:;,4>:<>:>>,&=-;;--:-**&#+*%$&#+#*$$*-%%&&*%*$$$@@$&%**:>=*-;:>;$*;>>-,>>>;;-=&-1<>:;:>1<-&&&#&%=-&-;",
"=,>,>-:;;;><,12:=>>,;;>,:-1,,<4,>><<132=->>,:>>;;:;&#===&*&***=->=*=;---*&&*%=&&-<11;;:>>1,=:><,<2<,,>::*&=22232142:==&&%%-=;-=-",
"&:--:;=:;;<>><4<;:>;--,>;;>,::<,::>:><3;>,><<,,>><>-$:-===--=--;<==-==-==*&=;-;&;<12,:<1,<1::<<<21,,;;:-=%&:>,,;;:-&=>;;;:,,245<",
"&;-;,:;:<,:>><4>-::::<::>>>,>:2,;<>:>,2,2<,,,<><1<>-&:;;:=;;--;;>=----;-=*&---;=;223<><123<:>:,22>:<--;==%*:;=*%*&*$=,>:::,<3462",
"&&*;,>:,<:;>,24>:,>:,<;>;><-::2,;>>>>,1,2<11<11111,-=-;>:::>:;->1-*;;;--**&:-;-=;2442<1233,:111111<>-;-*&%=<-=-;-==$;<:::;,13384",
"-;:->:;>>>,>>14,<:>,:<,:>1>-:;2<:,<>;:<>231<11232<<;%=-:;;:;=;;>2-=;=-=-*=*:>>>-;135<:1,13>>,1<122<:,:-*&$*;;:;:--*%;,-:,;>22482",
"=1;;:;;:>>1,<15<>>:113>-><,>,>2<>:,:;,<,3312212211<:*--;::--;:>;>--;;---=-*:>,,;-,34<><,,<:=>,1,111<1>-=&$*:--;;-;&$-,;-:>,<3374",
"=,:>:;;;><<,:151<<,22,<,:1,,;,3;:-:;;,>>3334433221<;*;=>>>=;>,,>,:;;:--=-*&:,1,>;:461>,<<1,,:>,2<1141,;=&%=:;;;::-&%=>::><114463",
"=,;-:;,,:<,;><43<<21,>1,=1<:><3;>:::;>:-1:;>>>>,>;=&*;-<,:;;-:>,,:-;==-==*%;<>,,::54,:11>2,-,>>,1<,11,-%*&&;;>>--==%*::;>,,24483",
";;;;,>:::;:>>242133<>>,<:<<<:<3:,,,,,12>4:>:>:>>;-=%*>;>:;::-;>>,-*==-===&*,,<,>,<55>,<<<3,=:11<1<<<>;--=%=:,,>;*=*%-:;::><33472",
"=-=*;;:->:::>373<,1<,<<2,,:1>,3>>,<<111<5,,<,><,>>=*=>>;;--:;::,>-*--;--**=<<1><,341;>>,<1:==;;,,>,>:;&$&$-:-;;:=-=%=:;;;;,12152",
"@&#*:>;,,>>,>1832>1,,,,2,;:,>:2>,,,<12116,<<,,<<<>-&&,>-:;;,>,><<-;>;---**&>21<2123<>234451>,1225133<>;==*><>>,<,>>=;<,:><155484",
"@$#=-:>,:>:::265><,><:<1>=-;,:1><<<1344161<<,,<32:;=&::;-;;:<::<3=*::;-==&&<<111222<:,33242<<2,3355<::,;&*-><:1<:;;*>1<,,1246684",
"%&=;;=:,>:>::375,<>:<>12:;-:;;,:<21344516<1<,<121<:**>--;;,;;;::<;-:=;;**&&,1121<<,<:<2134,;1232222<-:<-%%*,,<1,;==%:1,>>2346673",
"%*->,->,><>-;453,,,<>,41<1->;;:<124343426<1<<><<11>==>>;=;>::;;,>-->;=-*%&*>21<<<,,<122<341<:33221,,-<>-%#->:,1>>;-*:>,,<1367684",
"&*-::-;>,>:>114211<1,1<<<,==-,:>234333513>,1>;>>:,:*&::;;=&->==;1;:====&&&=,11<<<,,:><1<2651:2>2112:>,>*%%;>:,,><;;=;,>,<2245593",
"=-:::>,>>;:,,,4215<<121,,:;---;<323444721->:;-;;*==%&-==*%&*-*-:,---:-=&*=*,<<,,,,,:,<21<55,>,<22<,<2,,;*&=,<1,>,,-*>1,,23365573",
"=-;;,<<12<::,574,32;,2,1<*::-;:2332355711->-:::;---$&=*&&%=-==-;>%;->;=&*&&11,<<><<>:><1224,,,13,1,<,>>;-&;>,,,;>>-&>,>><2556673",
"::=;<21>,;;>1593143111,1,==-::;1243545712-:::>>,;;;&%*==&*=$%==,:&**-*%-=%*,<1111<,>:,11<2211232,<>22,>-*$=>>-,,;-=&><>,,<346782",
"%;=:>22;;;=;2562353,21>2>-;:-*=1434466621->:;-:>;**%$=%$%%=$$&->=&*=;*&**=*,>11<<,,>,<<<,<>111211<2,,,;:=$%;;->;;#@&,<,>><23656<",
"@$*,1:>:;;,>366344115><21:;>,:-3545556634,<1,<<<<>:==;=*%&=&*-><;&:>;-:**-=1122<1<,:-;;:,,:;-:;;>>,,>;*;-$*;-=**-&&*:>;:><<3468>",
"$**&-->,<>3,388331232<4<51:>>*%<2231265361211<<1,<<-->--*#*=*&,,;*<,;;,:-;-3543321341,133>;*&-*&-=-;*%$&@O@$####&%$#**=;>::,2481",
">31:;;>2<,<,<45<<111><1<3,*:>;*1333341211-::;=%*&*=+%=$&*+%%$$**@#=;=&--**=121,,><1,;<<<>;>-&:=&--;>*$&*# O&#@@+oOOX##@$*=-:>27<",
",1,>;;>>:,1:232-=;1<;:;>>;;:;:=13323,>>:>&=-;&*%*&%@#&$%%@%%$&*%+%-=**#%%#%,<1<<<,:-=;><,;-=&-=&>::;&%%*#X%&#%$#++@X$&%*%-::,,4-",
"&=;;&&---::->1,$%;:;&%&**===$*$>,,<1,:,:;=>:-&=%*;-&$*$&*$$;-*-*$%--$%$##$&1<,<1:::>;><<;;-%%=&-=&&:=;%%&+%&$&&$**%+*%===;:>:,3=",
"&<1,;>>;>>,:-:;%*,;@#&%%*=%*$$%:>:,<>>>;;=-=&*%&&;;&%;;::--:=;-*#*;;;&&&#$*,<1,,,;-;>,>;&-&*=&**-*;<:%$&%+&&&-*%%%@.**-;-;:,,<2-",
"-11>:;:>;:<;<,-&**=#*%$=*:%$%$&:,<,,1,;;:;:=*--*;*&%%====>:;;:$##&;&-==*%##;><;;;:-:<<:;*;:::-=%-=<<;*-*+O$=*=&%##%+&&&*-=::>13=",
";1<,>-;-;-,::,>%-*==*%$*=-&=*&*:<,>,>>>;;&>==-;*:;==*$$++*=@&%OX$%$$#**$$%%=<<:%=-*--:::;:,,>>-;<>3,===$OX#&-**&##+o$**%*-><><1=",
"&::->,;::;><:;-&%===*&$&#%;;$&$->11,:;;-,--;=---**=****&*%&:;>;-;-&%*&&***$&<<:->&*>,:11<3<;=:-:<,;=:==#@O$=*&%=*&+o&*=;=:,,,,1-",
"&:::,>-,:,;>>:%&--&&*&%%@%;&++$--;,>:;;;<>:;;---;==&$--:<,<>,1,11>;->;&*-&#*&-;;;-;,1>,,131-:;-:-<1==-*&$O%=$$@**##@;=--;>:<<<2;",
"*::>1,<>,>;---:=;;&&#&=$+%=++O+*;:>><>-:<>,,<,<<2>--@-:;>,:::>>::::;=-:-=%$&$$-:,,,:>,;>1<;;<<;,==,1>>=-%X%&&&$###@#-:-;>:><113;",
"-<<,>:<>:;;:>:>&;;=*%-=%%=$$O&O&;>><<::>1>><,><554:&&>1,>:>><>:=:;:-&&-=*%&-=**->,>:<-=<1,:;-;>3,=-:;;-*$@$%*&%&*%@@:>:;,:<1134:",
":<,,,:,;;=;%;,<*;&%-=*@%=$&#%&$*=>11,<1,,><,,,<,33<:%>>;-<>>><,>,=-*=;--%&%>;*%*>><,>;><,>,;--2>*><:;**;&+*-==-%&$%+&;,;<,,1123-",
">:>,<>-,-:;&%>,&*$*=$&#&=%*$$%#=-<12132>:-,,;:;-:22>-:;;;:<:;<<:;:==-:,:*$@;;**;>:>1<,13,,;,,34:><,1<;-;&o&=%&**=&**$;=-:>,11<3=",
"<,;,-=:-=:>;;>-**==-%$#&=*$#@##*:,211<,,,-:;;,;;-<<-&<--,<<:<,,>>1>:;-;;*#+=-*&&>><,<2<<11:2:-,1><1::>==$#&-**&&==;*=;:>;<21123;",
"1,:>-=:->,,<<--%==**%$%==%&%$@#-,<1221<;:*===:-===*&%-::,,,::,,12,>;:,>:;%#-=%%%>2<112<2<,>:$&<21<>===*#+$*-:=%&**&%***;>211325>",
">:;*&&=-==:,>=%$&&%%&#*%#%==+O&,,>112,;13<,21<,,<<:;-23343444322542:,<2<:&$:,:==:2234214543>=<<121,:&=&@O@**&**$%#@@&&&&->:;;;1:",
"-&$#**#$$$&&&*%o+&#++oO@OXO+..##O*-**-*33<>,<1<><1,;;53646633445333<<<3,>--233>,:6767678764<267443442;--$$;>>,:-=*=*-::>>,,>:>:=",
":-:**;-*&*=*=-=O&=;&&$$#@@@$@@=*$;:;===<1:-;--;;>::=*1111<<1<,<>1,,,;;-=-$%<32:;=2222351<13><31355761<<:=$;;:;;-;;==;>><1<,<<><-",
",>,-;:--;:>>,,:#=>:&%&&#$*%&@$-,>>,1>;*<,-:;;=;;;=;*%<,>1>121,<>,;-;:-==-$#><;***;,>,>,,>->1<;;13113<:>-=%;:;*;>:&*=::1<,><21<4>",
"<:,<>;-&*->,<,>*>,*%=*-&%&*=#$:<3<11>:=1>;;*-=;:==*&&>>><,>:=>:;-:;-;;>;*$#,;=%*;-,1>,>,:=*>>;*-:,>><::;:*:;*--::=;=:*-;<><12<3-",
"1<<>:-*&&*:*>1,=>:==;;-=-&$&*#-1<>><::;1>*=;=--:;-=&=>,1<<>>&,>>,:-;*=;=*#@<>;=-:,11<,>,:-*,-=-&=<15,->,:$*-:::::*-*>>;:><>13,,;",
">===*=>;;=;;1,1-;:*<:-;==$**&#*;:>,,>>,2,==;;======%*><>,<1<<,<<:>>===-:&#%::-;1<,>1,:,>:=;:&>-&=;:>-==:-%;-*:;:;&==:,-->:><1,1>",
":-==;:1;-===:>;$*;->;;&&##**&#=;>:;<1>;2,=-;-*=*&=*$*,>,<><::>>:;:>--::-*&&;-->2,,,,>>:,,-;=%>:%*=>:=>,;;$:---;;=*=%;;-;>>:,<24>",
">:::&*:>;;;;>,-&-=;;;:&%$*&&&$>>:>,<2<-,>-;;-=;;*==#*<:,,->>;;>>;;->:;;=&$%:;-,<,:,>,::<>;;;=;=;;=;;-,1>>&---,-&-=-%;>;;>>:>,14,",
"<>>-*=,:-*=-=;;*;;=&*-=*$*-=*&:>>:<<1>=,>->>:-;***&%%,:;;:>>;;::=---=*=;&#&>-;;><;>>,>>>>*--:;-<-&@*;,>,-$:>:;;-;-:*:>1,;<11:<4>",
"=::***:=***-=--&;:;;:===-***=*-:<,<<>>;,,;:>>>:=*=*$%;;;,,,,>,>>,-=-=--*%@$-;-::,:>>,,>>:&=*=-;:;&%=::,:;%-,::**:;>*;;;>;,:,>,2:",
";-=&&;:=*=;--==&;=--;;==-*=----<<1211<>1,;><>>>::;==*>><>;>:>,>>,-=;:***%@@*:;>::,>,>>:--*;=--=%-*-;&-<>:$;<:>-::::=,;;:::>:,<2:",
">>:;=-=-;=;;;;*%:--=-:-:*=-===:,<<21,,:<,::,,:::,;;;--;,>,>;;:;:,;==::-=*$@&;>-::;><>>;-;-=--*&*:-=;*,>;=#:,><>,-=;:2::;:::<1142",
"::-:-=;::==;-=&%::;:>;==;---=;,11321<<>1<:<,,<<,>>:>;;>;;,>>;,>,1-*;;;-*=$@*=;;:::<1<>;:::;=--*&:->;&><>:%:<<>:,;;<<<>:-><431<32",
"=:;>-;,<>;&-;*%*:;->>--===-;;,111221<<<,>;,1,<:>--::*-,;;-:>::,,2<=**-:;:*#*-;,:=:121,>,:-;&=-=;;->>%:1>=$>31,<,>>,>2>:;,3522343",
"&=::-;----&&=$#%**==;-&&*=--;<31<341<,:12<<,,,,,>:>;*=>;;;::>=--:;-**=*&%#@#&%*-*-->,>;;--*&*--&===*%**&#+*>,<1<<<,<3<><451<31<<"
};
