/* XPM */
static char *_592741433239[] = {
/* columns rows colors chars-per-pixel */
"64 64 133 2 ",
"   c gray12",
".  c gray13",
"X  c #222222",
"o  c #232323",
"O  c gray14",
"+  c #252525",
"@  c gray15",
"#  c #282828",
"$  c gray16",
"%  c #2A2A2A",
"&  c gray17",
"*  c #2C2C2C",
"=  c #2D2D2D",
"-  c #2F2F2F",
";  c gray19",
":  c #313131",
">  c #323232",
",  c gray20",
"<  c #343434",
"1  c #353535",
"2  c gray21",
"3  c #373737",
"4  c gray22",
"5  c #393939",
"6  c #3A3A3A",
"7  c gray23",
"8  c #3C3C3C",
"9  c gray24",
"0  c #3E3E3E",
"q  c #3F3F3F",
"w  c gray25",
"e  c #414141",
"r  c gray26",
"t  c #434343",
"y  c #444444",
"u  c gray27",
"i  c #464646",
"p  c gray28",
"a  c #484848",
"s  c #494949",
"d  c gray29",
"f  c #4B4B4B",
"g  c #4C4C4C",
"h  c gray30",
"j  c #4E4E4E",
"k  c gray31",
"l  c #505050",
"z  c #515151",
"x  c gray32",
"c  c #535353",
"v  c gray33",
"b  c #555555",
"n  c #565656",
"m  c gray34",
"M  c #585858",
"N  c gray35",
"B  c #5A5A5A",
"V  c #5B5B5B",
"C  c gray36",
"Z  c #5D5D5D",
"A  c gray37",
"S  c #5F5F5F",
"D  c #606060",
"F  c gray38",
"G  c #626262",
"H  c gray39",
"J  c #646464",
"K  c #656565",
"L  c gray40",
"P  c #676767",
"I  c #686868",
"U  c DimGray",
"Y  c #6A6A6A",
"T  c gray42",
"R  c #6C6C6C",
"E  c #6D6D6D",
"W  c gray43",
"Q  c #6F6F6F",
"!  c gray44",
"~  c #717171",
"^  c #727272",
"/  c gray45",
"(  c #747474",
")  c gray46",
"_  c #767676",
"`  c #777777",
"'  c gray47",
"]  c #797979",
"[  c gray48",
"{  c #7B7B7B",
"}  c #7C7C7C",
"|  c gray49",
" . c #7E7E7E",
".. c gray50",
"X. c #808080",
"o. c #818181",
"O. c gray51",
"+. c #838383",
"@. c #848484",
"#. c gray52",
"$. c #868686",
"%. c gray53",
"&. c #888888",
"*. c #898989",
"=. c gray54",
"-. c #8B8B8B",
";. c gray55",
":. c #8D8D8D",
">. c #8E8E8E",
",. c gray56",
"<. c #909090",
"1. c gray57",
"2. c #929292",
"3. c #939393",
"4. c gray58",
"5. c #959595",
"6. c gray59",
"7. c #979797",
"8. c #989898",
"9. c gray60",
"0. c #9A9A9A",
"q. c #9B9B9B",
"w. c gray61",
"e. c #9D9D9D",
"r. c gray62",
"t. c #9F9F9F",
"y. c gray63",
"u. c #A2A2A2",
"i. c gray64",
"p. c #A5A5A5",
"a. c gray66",
"s. c #A9A9A9",
"d. c #ACACAC",
/* pixels */
"E [ s U U D U K K K K C V v v I R *.( g $.o.{ { ` D Z _ ( ~ D R Z V 4.R V ! M U x ( | U T ( W K F v m W +.$.b A 7.' R Z N h m _ ",
"@.,.Z A O.H A S { G Y D m v V D U 7...z ( W ! o.9.F l / +.Q { U B v ,.L u E D B Y @./ I { ( ! M S ^ R A N { F %.@.U ^ *.#.U N R ",
"*.-.A J -.P ( L F F U U c g A K R ' +.x ^ { B D o.E  .[ O.) ] F I c ~ l v I V B ! E v M m V P Z } T v m U *.v 7.O.V D L ! U ^ C ",
"b ! ^ f | Q o./ a B ~ R U C F X.( E [ g [ { F c V v _ $.o.#.} H ~ ( Q r | ! B Q U M N S C m H G Q L A V <.^ * q.-.v K A Z P ` T ",
"S q.) 5 K -./ G Z ! #._ ) ~ G K ( +.D r R G / [ P A s L 6.;.} E n @.m a | G V K V m F Q _ Z ` ( B D / X.| g & _ *.b T L m A E U ",
";.#.7 6 t ` Q ' / T { | ` I U W ! Q K b ` V K | ' R x a %. .Q F s M d Y Q V C G b v ( } K ~ ( R H ' o.S f K g 5 ' ' E  .) A K G ",
"( < H ( l s 0 f G ) ..@.( U K I Q ! ) S ~ n V U T ( | V m _ I s m C 7 ..^ / K K J U E } K n !  .:.[ 0 v ..7.-.e C #._ ` I E I ! ",
"c s 6.( | -.F g 3 5 b o.O.{ ^ n J ] ) w I [ ^ ! B Q ( R G I d U O.:.; A %.~ R R ! ^ m D U H &.9.R 3 H #.( ) ,.| 7 ^ 8.D V R T O.",
"g =.X.j T *.O.*.( L s 3 f Q 5.X.K ( n p u U 6.{ Z G J ! G i S #.W 2.{ % v o.#.! R o.! v | 4.^ x ; K y.U V / ` #.V m <.{ P Y P ( ",
"B $.K U ` ^ ^ !  .w.2.! j u d R ! m m #.G . b #.O.U C P 2 D _ ~ U ! { K 2 s }  .W #.t.q.O.s + * c :.` S ' ` D U O.k v { ! K ( l ",
"] I R O.K m $.=.( R 3.-...( n g 0 G ,.O.+.E r r <.O.^ M 4 ( L ( M n G %.4.9 1 +.$.#.] b = g R U *._ x R =.T N Z -.Y 7 G S U K r ",
"P K ~ O.I i F ( L Q / [ R ^ *.k z *.P ] O.#.#.l p ] c h R ~ T *.F b ( W W / % c | e X 5 R 8.9.9.} C J ~ ) I S J ( *.e Q #.*.Z C ",
"Z ~ ^ ( | V a G K S V E o.K J u R *.n R E Y Q 2.s s B I Q I L J I ~ :.U b ~ I y < p t ! q.] J ' F H V v V I A A U 8.P k 2.Y m ..",
"C W R ..Y P Y G S C A W ) m ^ M T ( K A z Z I @.( 0 V Z P ] Q M N J ..K V J ! U 0 ) #.#.:.E m b G ` S V A G E W Z U +.p k l ! ) ",
"K B S Y J P R M G U K S A V K m ! T z v V S } o...8 P ( o._ @./ K F H n m z m A j ! O.} T v A C P R F G I K J J v l $.! s K ..H ",
"G G v B K P A L Y ( G v v c F A U ~ G V / I T _ } l A ) { I S U K H L S l u a G c ) <./ s S U K P J K F P ~ T A v l A ` i m _ b ",
"x A B I I K S Y Q Q F g M V ! S G ( Q F E A Z c m R @ G X.E ^ A m Z G G h l b | C T r.~ r B B F T P U R Y G G N A Z V I k G L Z ",
"a v V K P A F F F S Z F K W ) g ` ( K P I R ^ A F ` 5 H / o.X.R U G v z v K o._ 7 E i.] n 0 l F K U P H V v x D E T ( C p R A M ",
"V M V j L K n B F V m W U K _ u ' T F G D _  .! D / H 8 ( O.^ G ! U J H P ;.+.q 1 2 { _ Z v j T V M G B l A A G E ! _ H a ^ S V ",
"U Y T y A T m C C B Z U I R Z N &.G m N I ^ ! E U F &.0 ` ~ E P ! U R o.<...; y U h g ! R U k z K D v P P L G S F L ` U m / P ! ",
"H T Q S k F A m V D v A G ~ U S *.U H A L Y ' ` O.A :.t U ^ K F ` ;.^ ( T - b Q N ( #.d H O.L u C U C Z J F V C Z I _ L M Q V G ",
"F m A G A P ~ G M A l m K ^ T p ! K P R J v W  .) L ] t l [ G V _ { Q T r z  .:.H v #.3.3 J %.G l m F H I G A J J K Y D l Y D B ",
"A B V M Z N E +.W U V G G L N a { E A J A k N +.E W { M 6 T R B U m I S z { / I A c A 8. .o { w.Z k l K Y L C G Y A _ R r K | N ",
"H R Z C V v V H G J P G F ! D x { _ G k v V s Z O.O.G V F ) J n H L l l E | Z S m i i Y w. .7 Y { W D l V I D l B F #.Z s E X.E ",
"P / K b n S ! x N S v B R ,.U s ( ! H l k H N 8 G #./ A N } x m U Z e Q O.~ N m z k S E m <.+.O A *.R g c v v J { #.X.g c &.] I ",
"R ( V z B E ( m t l l V V } U d [ H z g j M B d i A ! T D ..t n B r G ~ T T W x l b B L A c $.R X n $.U B b n ;.<.Y B 5 < U O.S ",
"#.Y C m n K S D v f A U m W K C } F H I G V m v j v B A 7.{ < { h ' Q K U P J v c v s G K n H  ...5 V 7.*.>.o.` A 6 0 M v u g R ",
"' +.D m B P E U ( R T ! R #.h P { J U E K N D J n K K W 4.f v -.| %.V ^ R P D Z l k m N J S G K ' O.i A u.X.L b a b  .X.:.O.u k ",
"7 <.3.W ] } _ / ` ~ ..{ O.R u 5.o.S G R C k S F P K Y s G r +.&.W +.Y ~ Z S T J V B J B A G F ( R y 9 e S f ; u } 7.{ j D ,.[ < ",
"M i 5.*.` +.W P Y D G M C 8 u o.{ ~ A Z A J A B T ` F y ! h P %.S E U P K F B n M J J P F L Q b 0 l T S < r S  .#.R m C v g ( %.",
"` N u F D n d t i v i w u C n s F | I Z D F L R P ] d A ~ a n J I Q W D B P Z F m S J T ( H 8 v -.! -.W e ( { H S M B H m m K ` ",
"M E p a v m M V V K [ [ T =.[ j F ( P Z G n K T W ] + k l Z L P W ' U J Y { L F S S P ( a 2 A o.J J o.b A / M M j A b M A M F n ",
"L j @.H j D Z Y Y I i S ) W { ! ! E N K I Z / W ~ ~ p Y P m D Y J T F J n ) I D F ~ V p l K } S Y / U D Q Y ! B y R ' +.S Z F G ",
"/ { ` G N l K T ^ ` p ( q.+.L ! Y R H M F T Q J [ m g I N M a J H J J W A W G I ] j r p ( { Q U I U ~ D Y O.O.K 4 U [ @.} H T R ",
"..%.J ^ G Z ! L :.-.b o.o.S k Z ` J K F ~ ) %.^ &.7 ) k d G g N H J D Q R | H A g m T G ' Q Y ' ^ W G f H  .>.,.l U ) V I 0.^ G ",
"R E H W ! ] ~ J @./ G  .D H H b W W A J ! ^ | #.g f ! N c l n n G I T M I ) P a l } Q K W A ~ W J S l N  .! { <.h A *.x C +.` Q ",
"E Y Y W U ) _ F ] ^ C R A W R m x H P v g j U Q * ` ! G H B Z m A G F U E F u z ~ K U L V R ^ I ' H s V A +.Q { A U X.G ] D d E ",
"D W ( m z ' @.H o.{ G O.P P U A k ! ( v s x R I r Q +.A J V S B m N a P T g z ! P M b N I ( D D <.R V G x G A ] U K O.R L L ) G ",
"V W B A ^ R P [ s._ k | _ D P H V ` +.T b c Y Q U f ` ) H H G A A A f U Z r { { G V n M J K E o.o.S A V K G A { Q V ;./ i ~ <.K ",
"R %.M A U B  .<.T h g M  .! c m A E #.O.D K F A { 0 d | D I E H G M V R t g  .) P F H L A V R *.) B V A R ( Q o.[ B *.%.U R L L ",
"G R A A ] | T f t R U 8 A 6./ K P _ ] [ U S f l $.o.s K A J Z k M d d i s A U _ / C D W I U L H g l K N V R U ` ..u / ;.` v G ! ",
",.` T } ..h t D [ <.;.' 6 l e.#.Y ` Y Q } Y v M 4.d.G C ` R A c v C u 9 k L ^ ( F S D ` | K m m D M b J ^ R !  .l q S O.Q  .' } ",
"' W W T 5 b  .~ N Y <.1.X.w u %./ T $.=.,.4.5.4.;.[ V B +.` U v C L u d i J ! K S T B V ` G h F ^ Q m K E R 4.K e K g e n J l b ",
"G t U h F 6.! M K D L U ] %.v h D c Y ( J v l n r a u v G #.^ k ( A a D L L m k x U G e m U P J J ] #.( R 1.R g *.8...G U W M E ",
"E T C S o.{ v z C H v G A  .=.n v z N K G V S F j J L F e L #.Q E p C <.} L V G T D Y i u M V R ^ / W T #.#.c =.+.! O.7. ./ ] Y ",
"}  .S Q Q K z S ! X.U v U G ) ( y I o./ ` *.q.u.1.{ ` ..K < J &.b m R ! L U R E [ I / / M k g G K Y ) ' { n  .O.~ z S ! ` #.} D ",
";.A ) T V G W O.( Y W V F F R ) Z ] ` H V G { } +.o.! *.9.K : v t S ` L K ^ U P W R K *.O.m I Q J I ,.( g L G C K C ] I H ] / ,.",
"T B R C m W ) _ ^ I { D v U U @.S H ( C G d V K G ! { *.3.9.Q % l T U _ Z W U R ! ! P ` #.b A P o.&.+.b Z ` B J z K <.X.Y H ) <.",
"C N I n v G ( ( E ( U b M I B o.` l [ S ! D l Z D S W L U *.q.L w I / S H L Y P L D G F G v x S &.$.d v 2.! R U l K ! { R ~ { _ ",
"v ' ' ..R b I I A ` M r S ! P Y =.b T { { Q I ~ W R Z c D Q $./ p u U V G H D D U H G A D s L %.M Z S ) ( T W G g ` ) L ^ / >.| ",
"A +.| 4.[ V C K I ( G l V ! R G Q A A >.` R A Q } ( x V H V R E Q G . b ! v m k F m F ] P R >.| n I H  .L P G V g N ] c ` ' =.U ",
"~ ..^ U W [ Y E %.` ~ R v J ' ! _ P z ` ` K V C #.[ x V Z S L R S ! E G u y I E G L G T ~ ,.U ] O.M V @.R G J N n h  .W K { *.d ",
"o.-.N h A _ ] Q J m G L A A T ` ] Q j U ` Q Y ( <.W k x A ! S E F D ` G y P {  ./ <.Q v U R T { L p I :.` v ! S C d U $.E ;.` 9 ",
"9.$.B z N C L H z g L O.E C L ~ ~ O.v S  .( R { E ~  .J V F N } A ~ A $ ( I s *.U #.V i l p u 7 - 4 M #...L ( S x s K 1.:.7.c B ",
"d.I M V  .+.V b n U  .,.4.T n v ` p.Z N O.! R K g Q ;._ v j L ) P ' w N I U 7 0 v d M J v J J ( { r # P :.@.` U V g R t.&.b < W ",
"q.` A U R } J G R Q T ' #.R A m W y.! x  ._ R F M V M V ( { O.O...e M ^ } 1 H G ( f _ &.^ o.{ ( &.O.h   S u.e.#.@.' l e 8 u = u ",
"J q.! J A U R o.[ b Y J U :. .A ( ,.( c ;.$.X.{ H x S R &.e.-.K 0 I Y ` R , { E K U ..} ' m b C U  .7.G : p 1.a.w.n X r X.i.{ $ ",
"h ' } Y U N ( :.{ k L K U +.) V ` #.I s { -.#.O.] ] 5.t.] U z > R $.H | y Z *.#.{ L G [ T k V J #._ ( 6.! % 6 D e 4 ( 2.....e.) ",
"U s ) ! I C E ( K Z T L m m G J I =. .p I ;.#.{ <.r.X.l i l q R W O.T } 0 ,.*.' G j k V A I P K P ` Q ` o.U r + j w.7.D M S ! u.",
"W N  .W I n L L Z Y T H z n K K I | :.l I 1.;.*.W v g z { :.' O.Y T H j v (  .n s K K b V I G L s J ) L l L B 7 4.4.E {  .V C ! ",
"K z Q ( T G K G A A K ( T A J A Y o.&.U j N m s a X.,.=.' ( @.@.! W D s L ( | m K [ ! V A P v N I ~ [ U a R G A 9._ Q ~ U ( G s ",
"U s J :.A A c G B A ! { ..P H G U X.>.T 8 t N _ ' =.X.O.' P Q U I I H X E R [ H U | ( L m S v K  .O.W D R +.m c 5.[ ~ A x U ( C ",
"$.W E q.S d R  .W Q [ #.` J U R S E 6.D g ..O.:.Y V ( ~ W [ ! L B T T s E U R L P R R P F Y L H E ^ C d ! 5.m r _ ` W g g m U T ",
" .| b ,.D S ;.` Q U / _ V m K R F T K 0 ^ 7.O.~ K P ~ T / ..S m N W f g L R F W G H T Z H T K A ^ I u n 4.u.k q / J k 7 u f J Q "
};
