/* XPM */
static char *_069e89eff29450df4db8061eb75a37dNxbtdToVALZZtlIe[] = {
/* columns rows colors chars-per-pixel */
"128 128 38 1 ",
"  c #232323",
". c gray14",
"X c #282828",
"o c #2F2F2F",
"O c #323232",
"+ c #373737",
"@ c gray22",
"# c #3F3F3F",
"$ c #434343",
"% c #444444",
"& c gray29",
"* c #4E4E4E",
"= c #505050",
"- c gray34",
"; c #5A5A5A",
": c #5F5F5F",
"> c #606060",
", c gray40",
"< c #686868",
"1 c gray43",
"2 c #727272",
"3 c #747474",
"4 c gray47",
"5 c gray49",
"6 c #808080",
"7 c #868686",
"8 c #898989",
"9 c gray55",
"0 c #909090",
"q c #959595",
"w c gray60",
"e c gray62",
"r c gray63",
"t c #A4A4A4",
"y c #AAAAAA",
"u c #AEAEAE",
"i c gray70",
"p c #B4B4B4",
/* pixels */
"49809rueyyuyuyrrrrtrttyetuyq27wtwwr89trqwqr99q00890qqe90q0e998533566776662<<,>6097998880979077662334443342<344476556667445570qee",
"ruiuyyyrrrtrqrreww0wrytwttt7<9qe89950tuqqqqqqww6>494600etye03423,3898089614<:;yiiiyttttuttyptrytyiuiiyew073etyuyeetutteewereryte",
"95qe9wqw90wq80q975000yrtyrr5,qtyqreqrwww98888782->><7659tyqe4155>;68847675<1&<twqq00qq89qeewqeeertrwwww0q828eqrwqw00qqwe99q00qew",
"6><8990ewq980e0978rqer00q9w8>8iyywrw998766779657>&*2678qtw9e6283,24556545534>209999q098wewrqqewteq0w0q0090750qweq0wq0rrq0888q0qe",
",114908qqqewqeweeutqyertety6>70900886507798q8580>;246eeqw00wt340<:>1<522343,,<657865809007wqwq00wq80qw989q02384q898rwqwq77860eqq",
"1444454rwweeerrruteqtuqewrw<<800774q9ertewq7479q689558898qw9w3,>=::&,363332<,1675346467889q99eq9976887897971,5<69979978857677etw",
"1,><464utrttytreeq976890663-<8qw08qytw9w0q95669q70w649097ww7<=;16361<>133242>-553245444689779989555685578732<77907756956667660er",
"<<<<2449yyrwwq097535744864<;2130089wq966566786qw56q88wur903>:18r828y3425,,3,>*3447445242333575554541276345566669777796566345547q",
"<3431<:1575678975656644366<*1,<7678863544889770946898qrqr7:15670q09y2:2<<-,;2>24343323321<23223334333441366415653667543334441223",
"421,23,,<<7560863565576366>&<5<57787765678879866<59980q06:-50970etww93-;;-=:,:35212322233112323212<332345456<6512336232124124432",
"86>122121<5699q86452366688-$<5<39788787905675362456<531q2=;8868799q0et76-%%>:,676766535456334345112314566487<33><1232<4456432323",
"q0899924085<<,:,12>11>,<31$#&=%4464345598545551,76422;:5;=27896765w88err7>==:<,>,,1,,<>,<<,,,<<<<<<223222434,;=;:,<12:4334556699",
"458673353344<23460760q061<,1%O#;<<326527543<1,453564:;,5$%>780665894709qyu9,;-&%$#%%-&&&*%&=%$$$&%%%%$&%$*==--;-:===;-;==;>,2442",
"3545223,;,<1,>::<2,,<4545=O&2=@O=15697>152712254,4751;23==-4999656768q8e099w08;$->>;<>>1:::,;;;-;==:$=<===--;:3,-:>>,:<,<123233<",
"35514333<,12<11<,:1113423:X*w61&o&6822><>:23123323642,22--<225537877879998570i3*$<1<>,,<:;::1>:;::=,-,>:>;:,;;:<;--=;*-:,1,,1122",
"4765534341<1<<14322<233,<=$>76--=$<0:<3*&=>1322321665112#:4<<3<26w0725898089802-*%,1,,<3>:12<,::->-;,:>>1<,>>2<1,-:<1<>,,<111233",
"3864425321<,:,<>;,<<,<225%*246,-1-*>1<<111>;:1236254663:+12<23534908259q959e793=1&&>,23451>,,:2<>,><:<1,<31>:<>;>->111>,:,,23554",
"288665666752:;:121,321222#:1357>4>&#*1<>1*-62>,<<244442%%631<464599788779q0q694;,3##;113344121431<,4222<>><,<,::>:,<<>>32<>13565",
"6757867666445321521<211,-$<421<:981*+$231,,,<,<<<22323-%246475742576q325wtwq7q5,<2>-*31><3<153>><,,2:361,>12,:21=,,,1>,;13<14476",
"5766766778435206,13<23<<==13223=1222>+#:11>><,1;22>14>%=257697732888866679qq0q4<1113&;<<<<12232<2>>>-<221<,,,>11&:33,1::,<212467",
"47809988q076676644214434:=532-5>487152&#%>;>631;1<-,$$*>26846637679890q88qw80w3<5253>%,12452133321232,<25<>,41,;*<22<21,,3664468",
":,2<311,1<<<<>;,><<<:,<>$%2<:&-=>11<,,:*X$-=>*-;:>>O@,>;>,<,:><,>,<1<,<<,><,<:-=;;>:-:>;=,,::>;=;;>2,:->,:-:<,-#:,,><;>,;:,<1111",
"++@++#%+$#$$@###@##$$##$X+*=<52<;>,<:=<:&O$-;;:>=-#+:===&***--*--%&=$&;&&%$*&%&*&%$%%$%%$##&$###$$##%@$@##@#@@$@####%%##$$%@#%##",
"><,,><;%;$$##%$#&=*->-*;$*,34844,>2523566=+$><2<3&O;3>3>11<1<33251&1,,1<::2>>=>:&*******&@%&==$;,>:;;*%**-:;=**$%@-:,1:,1>><:<==",
"963>,1>-&-$%=:-$-*>><><1:%1346357344636883*@*345&$:134<:6689870775%341254521<3,>-::=%;&*,:*#<:*<1244>,>>;14>--=$&*>>>24<4641,<<;",
"<<2<1552&-*$%*;;;*;,-:11::2244455855<26e758:#=3>@:664,,44600978095%18>1587554443<1:1,:--262:--,,-,5341132354-;-$$%>211>5734==>1,",
"4121><<3<-,>>::1:-->1,*&;1234425674444495677:%<&*557<>474007679896*>7<>47087253124355<1<:2632;,5,11281,,448;:2443:,4<:;<64-&,>,2",
"5531121,3>:,;,:>;==;&$*;>5685523<763223988998%;%,51413865807099874:*86>16388961136098564,:,161;2351317514,**<55431%-24,:14<-<>>,",
"<11>2222,::<*:,:1-%>-,36824616551<3-23199568=*--841663609885636564,&10,,77580888659w9808465<35>>49855086>%>6596276<**153%--*1>2<",
":1,342>=*->:=>=>1;%1&499772<3<33232><119q77>#:2799<468876875476328,>,5329969097478909989085734,,5096<79<;24588e98784*&;6;&@=11<<",
"&*322:&-:=&*==,>:;$;11653546943977256338085;&>47886897952875873382396238qw869e038q9888548537341;378724=#;44<69q0q7876:$&4-$:2332",
"3&<1&-3274<<3>*=--*:32415363342252<46757844-$;4947679875547484360>39w93067w77qe069q998996765711-:768,=&<92541968e9qw62>#&&11165*",
"2-=&=11414311;*=*&#><33252652,3553<33077075;$$:57978w978624783575,79qrq076qqw090788967878675888>*55>-;14477e038qq90052<:=%:<1,-&",
"1*;<21<65255:,-=*:%&2544754743223218679q882&>%;368752557869777679<3qrwqq098907888686685618813895=21>2652>546t06q0e6115553=@-,%-3",
";%7425395343;:-:;=-%;4<353671<3<11157799w>*%<,*26443665789q7747q8:3300qw988897957853684356073576,:22::<124857w<17w95536344-#*;><",
"-<4123347574382;*:$##,<487q8643,>622173>;=,:*;&>5348879534<2278e<;23967773244566865452<<23<<1275<,-%*>24<252391=>600531>383*#-<2",
"13313><2454432,,>--=@-&-,>3752>,:;-,134:*22;@@->>,32456<,:>223561=;1866972,1<<2314,3:::>3:3631583=*>12362,1520w642590w935765&+<3",
"3299970968098wew0w9>;4542<<>-<25512<>;-&->:<=.@*&=;--:,5787687878768899ew867789655564532538ww09=>;49321674477660987742468565<$*1",
"22989999qqqwq0wwee0>,7555521158q90q6562223344$+<32>;,,<58709098766885560qwqwrw990w900qq90wqre0:-438776990wq900w0q971143564656<;;",
"32q9488889770875985<=<85344227q09ee0q887268862$&13<>,1<1458678767466661wq9q0qq999968678870009>-40q8973467q9ew0w0we6868809998787<",
",2684855899698599e8<1*<8647528wq9880q07,2q88666:;>;;:>,<12576788533554<680qq0qe0077947699009:>wq8qqq05777778qe0wwq800909q0q99867",
";516053269857q9rwe6:5>*4w9982508854672<49788969081=$$,::-;1586646455562<159990qqw99769889we>>90957q998536742690q9879q90799989765",
":96wq65790468qw9807,37:=35984698975452>5wq9650q073>1*#-><<,<3565556633<,:>67900ee68889075<:;8689528768963785440w0q789w9067900878",
";28t0q0eeq70q467554<567,;;78758589812<,46q87808053>77-#;1,:-:1453533342>,:<68900q090986<;*<0q5606322556658q9479eww990qq0079wq099",
":3werq00898wr977885596994>:70655646563543708007772,658>$-1:>=;;>22433665:=>25888090w905*-20q8808596563246641589qqq07qqqq989wq098",
"38wwe06556568977rq85967645-<3459864574<63368qq0663,36902--<::;-=>>232,21::-,5889q90qw6=>98qq98q86905642<22439987ww87897q09wqq876",
"25996526653469048806888944<=657488654:255637989952>568891$;<,,;;>::,1;:,<:-:<768754<<*:90q0q09q977000533<257748qw0931580900q9757",
";375465113433579q883468642,->6579757::657q73777621>775578:$*,1246521,2>:,;:>,,;-:;;<*-568wqwq9q009709632675675672-->359090008844",
":356883545786355q96286844q93,6457w81;,<5476364344>>9996567>#&3117748,->;<<<1>&%&*:>>=45679q0q0qw3790995:123412--::;:<49e89098756",
":,6e96541<453565685399661567<5444562353458441><<<;>77907476-#>,::>-,:=>:,2,<;&:>>1<&15537700q0qw56008846313<-=;=>,2,>13989908463",
":<182,1:=>>;;>1326540875<4321<2>,-=>::69441,<3334-:67859857<#$%$*;&*%;%;441:*;;;-;&2159487999900q69q98qw92;;;=>,378424455556632<",
";--=>-=-:,,>24<1654798544,,>,<<>;;>,>33232,,<1,1,-,75956579>%*:,1331<1,=;41-%&&%-;<2455368999987q9q9q0995*->,,23669067656544411<",
"=$%@$$###$%%&%$%*=$$#$&&=***&==-;:-=,<,><1,><<>11>,22442<2<;243432421122;*=*&#*:,>,><421644589770990084,=*-,<13212689957664<1,:;",
"<#@$%$@$=%$$$%%*=<<&*=--;,1<;,,,,>,33<12,,>1222,>:-&**&=&&**=&*===*=**=*=&**@%&&**&&&&*&$&=*===;;-----*%%$%%#%%##%&%*&=====**%%*",
"<#*=>,,>><,:,2,<>1,;41<1<>332232,11><1,<<<:,<>,,,<;;=-==*--==-;--;=----&*$@%==-**=:=****&*=*==*::**%*=&+-&;&%:&=%**-=%=*=&&&-=-=",
",#*;-,3,:,31>121<3;>6452,:35434111,,:,1>:11,::;:<>:;:-*-;=-:=>,:;:>=-=:>=&#:;=;;==---==**-**=*;;**-====O=,,,;:<32,>4,:,,,;>:>12;",
">%=:>,,><<<<1,,21<<;3664,233423211><<>,,>>11<,<1<,<:=:;*::,,2::::,>:>>-;--#><<>>:::==--=---&=*:=*=;==:>%-3222<3363125<35321211-#",
",&:><1<21,<><1<<1<41:3321,2<133432111>><,,,<<:>>24<,1<,:;:,1<,,>;:>,,,;:::$*:>,1:;>;:*:::>;=:-**,>;*=-;-:252446112>16468733<33=-",
"2*;:23123232<21,<<5<*<<1<,,344434633>,221221<,,1<64124:21>:<121>:;:>,1,2<:=$,::>>,>>*-,:>,:-><;-;;:;;:,%,63258482,>>,,38715274=>",
"6>->44111<21,,::,<21:<,421<<23324452122112<2,<<2<2421,<331<,<241,,,,<<2352<@:>:>,:>,=;;,,;,:22,>>>>::,>#<861263453131>:,843764=1",
"7>=,,11<>121132,<,1<,<;,3232<<<<13633221,<,,><,,2<,11:5234111232<<,<,<22<<2*=,>,2<,=>-;,<<2;,>>,22,,,:;%<57633633545242>24155;*<",
"9*%-<3<<2<344>2<:-,>:>:;;:>>=:>>><<<1<1121,<,,<,:>1<;>>,,1133<<>1,:1>:,>:<<*=<>>;;:=;==;;:><>,>;:3<212,=2786868476545463:,13:$;2",
"7*1222343456557436543<:4;445544442343765565533431<21:2,1,2325541,<<1,<1><12>%1,>:>:-2:::>>:,:*--%*=--;-%695710w6879668<:%$$%=,41",
"8$4w07899qw07qew08994620q0wweqwt969690rewww0wrwqe85>508656777873244257478441;77599>,34470536541<>;=+++#$7e872370099733=:<2;-9941",
"5$155353<1453<463233<3354243456444436189q884086585347576444333,11<423325442;=2<121:,3155623,3367532>*$$@5q4>5348986752197361-;:-",
"7$351,642332234<23,,221621511221<3<>14564332565443>344435,1<,:>2,,33<,1>;22*-<<1,,;,<211<<>;<<,255354,-$42>3q7357879768686662,1,",
"6&5532721764244<<22<,1>434332<2121212,14<4452442<<<11452<,,:=-*&;:;,-&&$%=&@*%*-;-*,<>>2<;,>;1,;::,2575,3<59ew0<>>17746744883561",
"6&9237<4456222461<1321>33,,;1<<<<233321322135211<,<1121<1<>*:1>-&$$*-&$&==>&:>:=*&%-=>,25,14,,;;;:<,433:<368q0q665,2:-5635746346",
"7;93,344643441<24131441,54<:--,;<>3255533214312<<,<4232,11*=,<<2;*,;=>,1213*>11232,:;=->,>2,;>==;12>441-24678099w982<33767855756",
"8=6542<656223541<2211441<>321;-2213153<4424411321>,371136-=<11<3221><>><,1<&;1,2121;<<::>13*-,<<<:,<,185>36870q89w88,:7q76867456",
"3;941724436<13=>21<1<6644<,12,--><,43235511,,5454<;<5233:=<1,,,,134,<2=,3,;=,2,,2<31<>:,,:-;==<>-$->,27,*666878680856<8736739735",
"7>e643432386<-&,->2:*-:,:12>><>;-2222456732<12<452>5<35,%<32<<:,<:>,21,11,*13,,21<121<,1>:-2;;,:;;32541*,89648880087577864768444",
"6;600655367:-155>,:=:>,<:<5,,232-;1423342-26431<42<321,*=141231324,<13<1>--212<232>254,:>>1>>>,;>:<1<:1;<098564590765659856q9365",
"4;=3765311=$@$2153342131143;>2323=1333421;3786,>34,>3<%%<33<,33<232<>,1<:-=122211,>;>,23<>21<<1;><:;*>3<19q005669876575673266776",
";&*><,21:=->&=;25,:5211213:;21144=,;,3581=,<;<11>>->&#$-:::;,:-;;:4222,:,;-44252,->,<1::;2,2<1<,;-:3331:<6779796998876887546454<",
";->158512<,>:,=;-;&%**&&;>%-;-=;;-&&=&**$#%$$%%$$$%$.#*%&&%$&%$&%&====*&-#%;;**-:&=-**=*%*==-;=*=;:,:;><,,-=--:=-:>,>:;;:,>14411",
"6w09rte00q9868>1463;:24666;<556557;1332%%-:-=*==&#oo%*&%*&&&*--=--=>1<,>>&*,,,<,<111&#&*-*-==;;;;:>>,12346411<<,>;;::;-==::26766",
"<2490579770w9655666546786,-90896682:9ew=;2121,<:*&%;:;:,>>::>,<11<1354534;=445545657;%;;:<111221<322443457535553111<>11<1<133476",
"<,;90868769w9776653435555*167755567;10q:24443212-*%1>->1,<,,2122534555545<:255588869>*<;1455<232332332245345656234<,132221465554",
"24;<yq88988q8464366807566>557777608<<qq<75532,33&#;53324<,,><>:>,<,><3446,;667460679:&>,6874215577432233545743424123243222488667",
"4<,;408q867877656098731:477556886897>5e186245:;=$;54445555547446554532<><-:776667691*,2>784456767652,344547823443<23365322489788",
"7575<:6q09999967087751>:>>>>167775062<6<33364>-#:366665565544568535655333:*,0875804:><5><5554467774234435332442323355<3344688909",
"4936w2><80q99788098607:,,-*=<7587314;=::267772$$477575666535552553546434682%<6678<;2212,,43336744543566453223245531231<135689809",
"1449q98,26q088099770q:,4465<<8668733-$;,70775@@-765556678855521666676777867<:;272<,33<32,24636553437645345543344532323<457889999",
"2557w9e6,6q8877078w4*;466871=;475787,>-%,874%@-467666657965553386768667896577,:;>346->53,>56424543255543764546745421<313477990w9",
"4460e9qq1209978e983:>8090997>&*,84:3,:8<;:1=#*335977975676565557676665666673485=3459>=345,:,3545524<3668855688711324434<46589900",
"2>460870319q09wee1,26q08979873;$;8,<-,014>=&&664886777555657456666677676588953>,8997,-,2,*:322,111<->332435635632453314>21357679",
"&--5ww094,0q00ww,&>77q909999756,%=7,;35374%%>68887766676666887776677867987773:>687565<-2>2wq00qqq967780880qq9809999879771670q900",
"-=*500qw9><9702:;1wwq79909998878<===36640;#:557897886687556887876558867896::25789677<5-#,698wqwqeeq989077768w9q998865450428000q0",
">>19rqweq<>86<><60q909958009099882-&<q8<:-;3699967688756877777778877666551=<76861221:,=@:880qw0qqq96766655<6qqw076657369758qqqw0",
"212er0weq7,431608q8700077870q880768;&,7*>>425799707788644754577876667574>:356622<,=%:,3=*779880qwq51648732447qq0986766899758q9q0",
"554qw0q9q02,3313557ww009887799807577:%:::,5422343575447543235456667662<22576653,>&*:>23;$198899q08978894547769009879688999440098",
"774weqwew072,;:270ree909887798qq55008-*;,<331,<<:<1344334222333565652<55675443>=:11,,<4,#18898q90097576576690090q9880078096300q0",
"8849trete05,>2qtterwqe0088078900w90qee-@,11<112,<21>11<111441244343,665565544>-<<23>,423%,009688908746897777999700990976888000qw",
"e039rreqq:1>6wteeww9qwq9009009q000qwwq4#&<<<<113<3212,,1,,22,1335<<364476545<,1222<:<352*=4776959q87660q055868787667987664400000",
"3550rre9:;44wwryyyywwwqw90qqq900w90qqww,--%-:<>1<>>>,<>>>:,,:122<<446654544:<32,<<2<<412,**:<>3469806457541246568:=7087644369097",
"=;<7eew;;4q0wettyuye0rqeq0qwe00qeqwqwer302>>%-5557775532131346664898998543:,35633541:<<,><,<3633376666543521<1,<8128774456367997",
"::,:37>,rwrqetyryyutrtw8rtwqq54675658w84wqqq:%=148856746312,2<369900796694,7qq98880w757531,,;:=%=*&*-==-&;=&&*%%<,<<1>,133<,2690",
"78074-;wewww08qeetewqq99065770870q00805242252- +&;>$,>-;:%=**&=;:>16213975<<541,2<23341,:;>2=>>#$=;,;$%-*@#**$$%@##%$+#$*=::>177",
"086,=&321875775536906158413768789968322;>,>:>*O+;-=&&&=&*%=>;*;>:12231,<21<=1112112,:><>>;=;-::*$#1,*&&--%***%@%%$%%%=&--;>;::<,",
"4<:&;,31,2<-13211213;*:>,21112,32<152<3,-,4<;%OO;2,:;---*=-1:-,76124::1>><2,<144:;1;*,11::,=:,=:-#*;=&#-1:--=-*-<:>:;=:,::::-,<>",
"1&*><32<,22><<23383-=:>,>14411<<2154143=:>>-**o+*2<->11121<3,:3933486<1,-,4,<64251=:21;,=-;;::=--*+#;&&--;;=;--=>:=&:=<<;>::><,,",
"%;5<,21,,13<51<4314:,>,335332333432432>=;1>-&;#+,;==:>::,1>42,,<1252544<2,,,;<,,2,:4641:=-5,;*#$&*;=$<2<-;>:--;==*==-&&-;;,;><<>",
"-654,<<:1>2>12233<2<3<:154,544535,,5322:--<:=,$+11>>>:*%*,-;>:-*35<23873884<><,,>&;>-,2<,>,,,:**<265*%:-*=*-2><,*=&*%*--;-><:<>,",
"<<1:22<:><244,-3<13,31;11,33<51,23632<,-<,=::;&O*=-=<1>->::<22,:;;=-:,13463<<12:&%;25567513424224522<&&:-;=-:>><>,*==*;,:>,,,>,:",
"<12242<223<<12%><2<>,1,>;,6<:,::>12234<:341,<,;+->=%=;=:542,>2<3<,,,<>=;541;;;:*=<356<43343451,,1861<>;%*;,<*=&;<;;:1>>;>,>1<;<<",
"<<,3761221<:=-,<22,<::4<-:,%=:&;22,4652<1376706&=5>,;--=<311<1:->,:;=,12213>&=:25582>1<2<<147414:>362,;;*&<1,;&&&=-><<>>31<32:,2",
"2<5143553211331<<,<<111<<<>:=4=;2,2353<<2328760:>72>2<313<<12:-*>:;:;-2<<44=&1,,3252>,<11<<,2,2361:,<:,:;:&=,=-,1;=;111,333212><",
"5313223<>;>:175<>,,>21>>>,<;252,:253453:>457899---,21>,>:31<->>>,&=:><<<>2-->32>,23;,131:>23,;<>,2322--11>,;>22>>:>=*:442<21,2;*",
"25243<1<=:;-=341<:<>,<>,21,:24,,>445584,::3316=%;=**1,,<:,,;=,<,;-=>:>752*%3:15211>=57641>,,<342,12561,<,:<<:>1,1124>:=:2<21,==%",
"24--1<31<>><2<,32,2<<<,113;:12<,356642,,<;<>13*=,2,#%1:>2<1:1,3421<<1>,<:&*>:<122,;:361122<254563<1124,<1125>>2:=51483<3,54,-,2<",
"35::<<322125221<131<;2<143113,<5426574<-:;<::%;->:--#-,1214:<335635322131*:<>;1<1<=13314,2>,<:<342<>-;><:2346,><;*,142>>>-:-;342",
">11-&%=>>*,2<-&;<:*;-<>;,122:;:1111463:50349;;424<32%;9895576808ww956877,=255353<-2475578865452232<,&**--,1>,:--;%$&>>=%%-:-*&;,",
"@@@*$%$$%#$$&$$$$$$#$$$$&@@$$#%#$%%@%=*0<=:==6546268:&>w06660eww0wr80099<:88q9wr,197q8ewwrewqwq00q8762265488774114;<4;;<13<;==*=",
"---==,-=;-;&;>-*,<2<2>,>:--:,,2:,::-*;-5;::-<4338554<:%7533123334175433<>*>506553647578469941999wq00969854734582571::<6764,*>,-:",
">1<,25<1<1341331<424,,1><65<<3221<17<;&4=:<31,<11222>4%*11<11<114,>12<<,>%=<41<33<3<1<1,11<4,1445637838538763<392;-,6495322221<2",
"322265<;>13465315331<,134536145684353>*4=,1<1><1:,1111;@#$*;1,,,,>>,,,1,;$=<><>>1112><:<,,;,2:,;11,288679865,21>:1655>11322241,:",
"444243-=>;,155446465667906<465573>1,>:::*:,1>,>,1,,24<1;&$@#**&*=*$$@%-,;#=11<2,,222<>>,,,>:,>;=<4175889644351,<7655671322125<=:",
",,<>:;>12<6345779867558572<3531,:1<1<<-*::;1<,<:>,<13141<>=$++#@++#$%+O&%#;;>><31<<2<:>:,>1::1::;>,347544773:,887226232<4<<,,:<2",
":>1,<,6411<11133117577>:;;:<22,,,=#*-$#,31<<,>>>;,>,3233,>,$&,>%&*:;:-@o#=**;,,4<>:>:>:<::,>;4,-::152964767;>73632133<3221>:1264",
"2132;,693<326414314213;,>12<325,%=,3,>;33<<1:,<1:>,,14<3<;%%,>:*=-=-;;%#O%**-;<11>::>:*<,>:,>1>:,:372574987;1511433223311211,486",
"3494<,5431,1,1131<<:>-1,1255443<,43341=32221,,<::,:,:331<:#->,:;;=;:;:-,&$;=#=->>--;::>;:-:->,14::,6<755432,6245627223q71686>364",
":1,:>>,<2>>1<131142,-,421223443453442,-321<<1<,:-;:;:<3,1<$-><<-;=:>::<:;@@$@*;-,;-;;<>:;$-*:<33=;<2>63376:357<16772<<461322,<12",
"4,;:>21,2322<2323<<-24133>;>165245543<;3<,,2,<,,:,>,>1212>@-><1-;;:>,:<,:-&#=#%*-;;:-::*=*>;-:,;2<<3;4784,25783457435326<,1,121<",
"5532<444521<362232,,24363435>,512343<,;3>>:1<><:1,<,,,,2<>$=,31<<:;:<<><<,;=-&X$*;>2;;-*::;;;;>,5,<4,983;36877683<3596333<113454",
"53222324442334345511533565454<,2156521-4323125322321,,<11-$;16353,;31,<<1,>,:-%$&,231,>::<<<<1>>,<63,97:<67795274500773141653234",
"324444445535442334,35344523666>:575341,><:<311-,-;<,>>1,,;%;3<35341,,35656121,<;%,765243,,,;:::,>206>81,757084665776763445654435",
">;1332,><<<,,>::>,;311:<2346637<687421-3421112<<13-<12<><;=$,,,,:,1,,,<::>:;;;:==-:<<1<>*:**=-=*-:<1=;,::>,236090wqw0089783141,<"
};
