/* XPM */
static char *_592741420873[] = {
/* columns rows colors chars-per-pixel */
"64 64 110 2 ",
"   c black",
".  c #050200",
"X  c #090301",
"o  c #0E0502",
"O  c #100602",
"+  c #120703",
"@  c #150804",
"#  c #160904",
"$  c #180A05",
"%  c #190B05",
"&  c #1B0C06",
"*  c #1C0D06",
"=  c #1E0E07",
"-  c #1F0F08",
";  c #211008",
":  c #221109",
">  c #231109",
",  c #25120A",
"<  c #26130B",
"1  c #28140B",
"2  c #29150C",
"3  c #2A160C",
"4  c #2B170D",
"5  c #2D180E",
"6  c #2E190E",
"7  c #2F1A0F",
"8  c #311B10",
"9  c #321C11",
"0  c #331D11",
"q  c #341E12",
"w  c #351F13",
"e  c #372013",
"r  c #382014",
"t  c #392115",
"y  c #3A2216",
"u  c #3B2316",
"i  c #3D2417",
"p  c #3E2518",
"a  c #3F2619",
"s  c #402719",
"d  c #41281A",
"f  c #42291B",
"g  c #442A1C",
"h  c #452B1C",
"j  c #462C1D",
"k  c #472D1E",
"l  c #482E1F",
"z  c #492F20",
"x  c #4A3020",
"c  c #4B3121",
"v  c #4D3222",
"b  c #4E3323",
"n  c #4F3424",
"m  c #503524",
"M  c #513625",
"N  c #523726",
"B  c #533827",
"V  c #543928",
"C  c #553A29",
"Z  c #563B29",
"A  c #573C2A",
"S  c #583C2B",
"D  c #593D2C",
"F  c #5A3E2D",
"G  c #5C3F2E",
"H  c #5D402F",
"J  c #5E4130",
"K  c #5F4230",
"L  c #604331",
"P  c #614432",
"I  c #624533",
"U  c #634634",
"Y  c #644735",
"T  c #654836",
"R  c #664937",
"E  c #674A38",
"W  c #684B39",
"Q  c #694C3A",
"!  c #6A4D3A",
"~  c #6B4E3B",
"^  c #6C4F3C",
"/  c #6D503D",
"(  c #6E513E",
")  c #6F523F",
"_  c #705340",
"`  c #715441",
"'  c #725542",
"]  c #735643",
"[  c #745744",
"{  c #755845",
"}  c #765946",
"|  c #775A47",
" . c #785B48",
".. c #795C49",
"X. c #7A5D4A",
"o. c #7A5E4B",
"O. c #7B5F4C",
"+. c #7C604D",
"@. c #7E624F",
"#. c #7F6350",
"$. c #806451",
"%. c #816552",
"&. c #826653",
"*. c #836754",
"=. c #856956",
"-. c #876B58",
";. c #886C59",
":. c #8A6E5B",
">. c #8B705D",
",. c #8C715E",
/* pixels */
"Q A 9 6 4 q T ] Q Q s 4 r c J Y E | %.;.( T c c ; a / o.T ..+.| ] 6 $ -.| ) | H U E E / H u c M H K / H e m W ^ K ^ ^ Q ~ E E K ",
"Q J s 8 4 t _ ] ^ E T K B f 3 W Q T T | +.%.) Z 9 D f c u M [ | o./ f ] Q / [ E H U / H M H H . H H T M H K ! K K E ~ ( ~ ^ K ' ",
"_ _ T t q q S ( ( ) ] W ( U l t E T [ ] | @.) E 4 e 9 H +.@.[ | | E c P P A / H W T / / K H H 0 4 j a E H K H H K K E W K Q _ ~ ",
"| o._ A l z N _ ) ) ] ( ^ K ^ 9 b E / [ Q ) { E 9 u g T [ ] [ ( / T H | | ..P P V H ) W T H a i H a K U K K H ! E K K K K _ ^ [ ",
"o.o.| G Z F c W ) [ ) [ [ ) | P = H ( ] E / ) { | e c P ] ) ( ( / H / @.{ @.| { U M +.) E l E E K T i m K K K K K ~ ~ ^ _ [ _ +.",
"O.o.] F p g h S ) ^ ( ) )  .( ( M e T Y Y Q / ) Y i a g ) / D H H H H ) @.+...| +./ B { ! / b E K W K 4 u K K K K K ! T K _ { +.",
"@.| | Z 9 s G _ m h P P ] | ] Q T i u E Y Q E / U H A * ] U h B Z v T P ] ( +./ | ) # / { / H H H / W / / % a T K K H K 6 ( } +.",
"o.o.] Z t c | [ [ w m  .) ^  .) E Y r c P P E ) / E H e B T b c B Y Q | / E ) ) W [ e / T / E ! K T W W T ! ! 0 p u 6 n H +.#.+.",
"o.] Q c t D ] [ | [ i D  .[ | [ / / M 3 H P P ( ( H T F e A f B b H E { | ) | / } Z l a @.} / H A K _ K K ~ ~ ~ u 7 K +.+.+.+.#.",
") P k 9 r D | ] | _ W 1 U U [ [ / ) E 0 f E / ) ) ( Q ( ; N c A M L / / ) { ) { U / @.6 / / E H J _ _ Q _ E ~ Q K H ' _ K } ' ' ",
"h i i r q H ] ( [ [ ) N s Y | ^ / Q Y D 3 Z ( ) ] Q Q ( 9 i i E Y M E ! / ! / ..! / *.B 6 E H } E } W E _ K A K _ z j _ _ ' _ C ",
"@.@./ P r f ( ( Q W ^ [ B N | ^ / Q T H m 9 E ) ) / T / h 4 c E E H H U / / ! [ } } [ L g a / | K } ' E K H } } ' K w E K E ' } ",
"] / ( G r u U ( U P W ..P 3 E ] T H P Q H l 6 E ] ) / Q A 4 b Z H u H P H E / [ [ E T T / g g +.' } [ _ K - ' } _ ~ e A _ ' +.+.",
"| ( ) Q D t N ( ^ [ [ ) ] 4 B U ^ / Y H H T f u / Q T / U i e B U E ! / U / / ) E U v / T / g g ` o.[ [ Q 2 #.` _ _ A e ' ' } _ ",
"^ Q ] ) S q q ( [ ) ) ) Q B q E Q T P ) Q P / e b Q ( ) T c 3 0 H E / P ! ! / E H j E | ! [ / 9 a } ' } K A #.} E ~ ~ y z W ~ ' ",
"^ ^ ( E U t s ) ) U Y ^ ) W s S P H Y Q E Y ( E 6 L ) / / H c 9 9 e d v H / U U v U ) / ) @.[ ! 5 A / Q H +.[ / _ K ' T < z W _ ",
"Y ^ ) T ^ f i ( ( / Y E / Q Z H [ ) E E L Y / ) T b P T T U / Y Y 6 $ @ 3 m K c P ) | P  .| ] c n - V a _ } _ _ T _ T E J 5 z Q ",
"^ P T T U D i / ) / ) U H A B [ ..( H T Y U T / E b 0 ) E Q ) Q H l N F T U K D Q ] ] / | { T | T C y a J A A _ T _ Y _ T J 9 A ",
"P U E P U D s T ( ) T Q m 6 B +.o.( H U Q / H ( / / H = M / ) ) ) D N P Y Y U H ) ] ) Q  .| |  .K n c : g A J F / ` / ^ E Q K U ",
"Q U P T ^ U s Z ( ( Q / M 6 D ..| H B U D L Z D U U A i 4 h E ) ] Q ^ ( ^ ( ^ T ( ( ^ ^ | ] ] ( K A ' E a : J _ E ^ Q E K V J / ",
"E Y L L T P c h P [ ] / H B ) ] Q T M L / / H Y K H M b b 9 * e G ^ ) ) ^ ^ E P Q T / Q [ ( Y D K T T ` A T e z E  .E _ E E J ^ ",
"/ K U T T Q D c B T P H T / Q / ..| [ H H H H B A c M h u a 1 * % * B T G N F Z P P U T  .E Z T Q K Q V K #.T e / _ | +._ _ Y _ ",
"Q Q Y Y E L H l A H F _ _ / E c Q ) Q U ) H | Y c H c B l k r f G t ; # 6 q N D D A P Q E H H Q K T _ A T } } ` [ ^ ( ( [ ^ ] / ",
"{ E T L E H H H E | Q E J n F Y c f M e E ..+./ H P H A A H E Q P N h 3 , * q c H B H P H P ) Q T Q _ H z K `  . .+.[ [ | o.] | ",
") [ E Y P Z H T Q E ( T A e * , * * * e Q ( H Y A H T b b E Q T c c , q p c r * f c F E P U  .] | G Y W t n _ #. .| [ [  .[ [ | ",
"E E E Y H B B Q U Q E U H a ( ( H ] +.@.+.U = > Z / E B D / / A l , r h c f Z Z t 6 h H T U ( ^ ^ J J U g k e O.| _  .U +.( [ | ",
"c 1 i H ( Q ( H T T A B B f E J E A / E o.[ o.[ +.Q r u h a b h c K K P U G H G K N q 6 P ( E ( Z N ] | &.o.e c  .O.[  .|  .| | ",
") L h 9 A Z H H ( Q H T J K Q H P U b M | | ( Q E T Q / c 3 h a H Y T P U T T Y K A H r 9 F K ^ ( _ o.@.| o.Y p p A / [  .^ o.o.",
"{ L c A D ; e H A Z F P P K U / ) E c K T H ) Q / / U Z b b P P ^ ^ ^ Y ( _ _ ( Q K H H 9 2 p Q ^ P Y ( +.#. .+.K n 9 ; U O. .| ",
"( c i c { ) H h u u b T P Y P H P Q U c Q / ) U T Q H D U / ) ) ^ T H F E E ^ ^ Q Y c P W G c ; 8 Z p O.] *.#.| | E ] g e z Y O.",
"/ a e M @.] ] E A * t F U Q P A B b H c T ) E B U H H H ) T / ) F h c s c G F G m T W P J T Q ( F w 6 Q ] [ O.#.[ #. .| ] z p e ",
"Y X + ..@.| ( Q P k * p J H A H E U Q h H m U f Z a 6 / ) i H ) T Z l c t q 6 t ( T T W T Q E ( ( T $ $ 5 Y _ ^ K | #.&.:.| [ [ ",
") 6 * ;.} [ | H Y E E ) H u c b H L Q H r M Q Q P Q / Q ( u D ) ] _ Q c q 7 H ] Q / E T T T Q P E | %.;./ T c c ; s / o.T [ { ..",
"+./ a ) / / ) E H U / H V A H X L H T M B L / Y P T Q ^ Q h l ) ] _ _ Y K N ( ) ^ E T U Q H Q ] Q T T  .+.$.) A 9 D f c r c ] | ",
"+.E c P H H / H E Y / E P A A 9 3 r f Y D L H H L H T T T b f / _ ] ( ^ ] ) T Q Q ) ) Q ( U E E E T { ) ..@./ E 3 q q H @.>.[ | ",
"/ E H } } | U L Z H [ Q E H h a c ; h L U L H T T P U Y P P q ] [ | ) Q ( ) ( ] ( ( ] ( / H ) L U E ( { Q ) { E 9 i f T | [ [ ^ ",
"W K H u [ @.| } U M ..) E c E E P H ; ; Y H P H Y ^ Q / / ] q P { .. .K K ^ ( Q h [ ) ] { ) [ ] P P ( ] E / ) [ | r z J ) ( ^ E ",
"H H H * @.+...} +.[ } | E / b E L Q L q D P P L P K Q P P / B f ) ..] F i N E ^ r H ( ] ) | ( ( ] Q / U Y Q Q ] T p B l U P Z K ",
"Z c T H ) ) +./ | } +.| | / H H D / Q Q / i f P P H H T 7 ) ( e )  . .B q j Q ] Z 6 H t h i c b c K T E T Q T U H H c h ( c h Z ",
"V T ! | g H / [ E { ) +.T / E / Y T E Q T Q f 0 c i 6 m H ..%.H 7 [ [ Z r s o.{ ] N B T B 6 % f r r A K P P U T Y T u q E G m Z ",
"c H T } h M { E | Z E ) @.| / H D H / Y P / T e ; 4 T o.....o.@.m s U B s f o.{ [ {  .o...] | { Q c 9 3 t c T H D B l i A B c ^ ",
"v H / / H e ) [ U E -.| @./ U H H ( ) Q / E Q u $ 4 | ) T | [ [ ) c U G m D @.) { ) { ) ) P [ [ Q ] Q A f 1 6 H c T B 3 B Z Z Q ",
"V c E / ! > H +./ / *.Q / ) H | E { E E ) P Z m $ 4 k ( ) ] / Y K ^ E ^ T K ) ^ [ { ) { / ^ | Q / Q P P D P r 2 B t c 6 N b c ) ",
"v Z H U / a c [ | { ] P E / ) ..P ..{ Y Y Z | | f k ( E T T ( ] ( ^ ^ ^ Q K U Y P E ^ [ | [ | ( / Q T H P P G ; c A D r B c l ( ",
"e 4 H U H c a [ { E T T ( +.| @.) | { ) H ; ] | Q e ; H ( ) ( / W D Q ) ^ E P c e K Q o.) ( Q ] T L P Q H H H t 6 B c h B c s H ",
"H P ! ! Y Y 6 ) E U b ( T [ ) { ) ..[ { Q 3 @.) ) H e e ( [ ] Q ^ D H D D ^ Q Q e f ) ( ] U / P Q / Y H H P H N 3 9 B h t r , H ",
"b U / L E / 9 Z D k Q | Q ] / / D ..] { T B ) | Q / a ; A / T B N m ) N H D ^ ^ P i i Q Q / P ^ Q T P ) W F A A B , 6 k f ; * c ",
"e u a v H ! c 0 b U ( / ) +.[ [ H { / Q D ( i / ) P E > b / H Z ) E ^ D [ ^ U Q E U e q ) Q U H P H Y Q P D F A B c 2 q q 1 # # ",
"$   o # 2 n J 2 f ] [ P o.| ] c B H / f ( | P e T ) T D 4 c U P Y ) Z | / Q P { P T N 2 H Q A G { ) E E P D B M c c c r s m D h ",
"* 9 M D T P K B 9 a ( / | [ Q [ T L / Z H A D 4 A ( T ) A 9 a A Q Z H { Q A ] Q ( ( Q n ; N B ] ..( L T P D Z Y L m c f l / ] ) ",
"* 4 f D H H H H ( g e E | | | | Y b B m ] Z L h r ( / Q E E e e E P E / / Q Q T P P P U u * c o.+.( H Y P B Z Y D c k q 9 / ) ) ",
"t e Z B c A K K / P f t ] ] ] ( H B ] Q ( H { / r h Q E H H H f 9 B T H Y Q Q ] T T T Q N , ; Q { H B Y H H D B B M h ; 1 P [ ) ",
"c k B B g A A H T H Q e B ( T A Y P T ] D o.) ) Y i B ) E E H / B Z D B H Q Q T P P Q E H B H 9 c Y M P / E L H H P f o * Z ( ( ",
"H b A B b h V A P U Y H t H A E E L Q Z L @./ H | L 6 +.( ) U ) / H Z 9 k Q E J P D T H T ^ Q P i s Q H H K L B f D f .   ; B Q ",
"P H B 1 e t N D D A P Q h 9 H Q P T / D P ..| ) { E e b | Q ] / Q Q P H J u e B H P P ( ) / Q c Q M ; h [ D ../ D K c   . + p J ",
"H B g 9 p f A B H B H K H B Y / Y E ( H b T ) | ..+.Y e [ +.[ | { E T P T F k 1 3 P Q T H N D T c f c = r Q +.{ K Q B P f f Q T ",
"b n 1 9 i b A H H B H T P D e ( { H Y Q / T { @.....{ 0 P { [ | ] ] Q P P D L P B P T P D 0 * 1 * * * q c e f P H ) ) P U H H P ",
"b * e k c f A H H A H P T U i l / H H U Y | ) +.{ ) ..c s / [ | @.( Q P L B D H U c E G H s ( ( H [ X.$.c 3 o % k T P H Z G D Y ",
"H H K Y Y H K H H H H P E ( H t h m { ..$.o...] ..+.{ | u H | | ) ( / / ( Q Q P H K G D B f T L E D ) E o.Q D c i 6 $ , B f P T ",
"P K P H A A H H H A H H H Q H U * Y ..+.) +.@.*.+.+.o.| Q 3 ..o.) Y T ( A P L H E P G P H K Q H P U c m | | ( Q Q T Z ] P ; H h ",
"J A J F H H U K H H H H g U / | M 9 P Q E +.+.$.o.=.) $.+.k k { { P b B D Z H H B D D U P K U ^ ) E c P T H ) T ( ( P B l r c 9 ",
"n 2 u B H B H K H U b H E H / Y ..u i ..) *.$.{ { ] o.] @.[ e A ( c i c { { ( h u t c E P U U G P Q U l Q / ) T T Q J D H h s i ",
"4 4 f i l A B Z c T E P H U Q / ] D 6 E { { +...Q Q P T +.+.L b Q s e m @.] ] E D f s F U ^ P Z B c H c T ( T B P P H D Q T m f ",
"e 6 4 c u e 6 u / E T E T / E ) / Y * % 6 Y ) T L E { +.>.:.%.+.T X + ..@.| / / U G 9 i H G Z K W U Q h P b T f B f 6 Q Q T P B "
};
