/* XPM */
static char *_592741389101[] = {
/* columns rows colors chars-per-pixel */
"64 64 253 2 ",
"   c #0D0201",
".  c #140301",
"X  c #1B0303",
"o  c #140C03",
"O  c #1C0B03",
"+  c #1E0608",
"@  c #18080B",
"#  c #141104",
"$  c #1C1205",
"%  c #1C1309",
"&  c #1E190C",
"*  c #230403",
"=  c #2C0504",
"-  c #230B05",
";  c #2B0A05",
":  c #250609",
">  c #240A0A",
",  c #2C0B0A",
"<  c #2B0509",
"1  c #330504",
"2  c #3C0504",
"3  c #330A05",
"4  c #3B0A06",
"5  c #340609",
"6  c #3B0609",
"7  c #340B0B",
"8  c #3C0B0B",
"9  c #231204",
"0  c #231C0C",
"q  c #2B1C0B",
"w  c #271606",
"e  c #36110C",
"r  c #3D110D",
"t  c #371709",
"y  c #3D0E11",
"u  c #370B11",
"i  c #2A1E11",
"p  c #3C1213",
"a  c #3C1D17",
"s  c #1E210D",
"d  c #2B230D",
"f  c #2C2D0C",
"g  c #25230B",
"h  c #35270B",
"j  c #34340C",
"k  c #373E0F",
"l  c #2C2B12",
"z  c #292514",
"x  c #332512",
"c  c #332C13",
"v  c #3B2D15",
"b  c #352D1A",
"n  c #392717",
"m  c #353315",
"M  c #3B3415",
"N  c #3B3B15",
"B  c #35331A",
"V  c #3C341C",
"C  c #3B3A1A",
"Z  c #373B16",
"A  c #2C3212",
"S  c #3E3B22",
"D  c #383421",
"F  c #430605",
"G  c #430A06",
"H  c #4B0B05",
"J  c #42070B",
"K  c #440C0C",
"L  c #4B0D0C",
"P  c #4A0608",
"I  c #530C06",
"U  c #5B0D04",
"Y  c #530D0D",
"T  c #5C0D0C",
"R  c #44120D",
"E  c #4C120D",
"W  c #491507",
"Q  c #551105",
"!  c #54120C",
"~  c #5A130D",
"^  c #55190C",
"/  c #5B1A0D",
"(  c #5A1207",
")  c #440D11",
"_  c #4C0D11",
"`  c #4D0F18",
"'  c #540E11",
"]  c #5B0F12",
"[  c #441212",
"{  c #4C1213",
"}  c #4C1914",
"|  c #4C1418",
" . c #481A15",
".. c #541313",
"X. c #5B1414",
"o. c #541A14",
"O. c #5C1A14",
"+. c #541419",
"@. c #5C1419",
"#. c #561B1A",
"$. c #5C1B1B",
"%. c #630D0C",
"&. c #690D06",
"*. c #63140D",
"=. c #6A150D",
"-. c #641B0D",
";. c #6B190D",
":. c #631807",
">. c #741C0D",
",. c #76160A",
"<. c #620E13",
"1. c #690F14",
"2. c #631414",
"3. c #6B1414",
"4. c #631A14",
"5. c #6B1C14",
"6. c #641519",
"7. c #6A151A",
"8. c #631B1A",
"9. c #6B1C1A",
"0. c #731414",
"q. c #731C15",
"w. c #7B1D14",
"e. c #721619",
"r. c #731D1B",
"t. c #7B1B1A",
"y. c #7D1516",
"u. c #700F03",
"i. c #48220D",
"p. c #462616",
"a. c #5C2312",
"s. c #5C221B",
"d. c #562917",
"f. c #423D1C",
"g. c #4A3B1B",
"h. c #453719",
"j. c #57381B",
"k. c #443D0F",
"l. c #77220E",
"z. c #632115",
"x. c #6C2216",
"c. c #64221B",
"v. c #6C231B",
"b. c #682B1B",
"n. c #742315",
"m. c #7C2215",
"M. c #73231C",
"N. c #7C241B",
"B. c #7C2A1C",
"V. c #77291E",
"C. c #64341B",
"Z. c #6C3518",
"A. c #76391E",
"S. c #5B1F23",
"D. c #6A1D22",
"F. c #751F20",
"G. c #582821",
"H. c #443C22",
"J. c #4C3B22",
"K. c #563823",
"L. c #672726",
"P. c #732323",
"I. c #7A2521",
"U. c #742A22",
"Y. c #7C2B23",
"T. c #772C2A",
"R. c #643C23",
"E. c #6F3A26",
"W. c #793625",
"Q. c #783430",
"!. c #3D411D",
"~. c #3E4321",
"^. c #444216",
"/. c #43421D",
"(. c #4A451D",
"). c #4A481B",
"_. c #55481D",
"`. c #55511F",
"'. c #7C421F",
"]. c #434423",
"[. c #4B4425",
"{. c #4C4C23",
"}. c #4B4629",
"|. c #4B492B",
" X c #574927",
".X c #54522B",
"XX c #5D5C2C",
"oX c #595527",
"OX c #5C5832",
"+X c #4F502A",
"@X c #664729",
"#X c #754729",
"$X c #615B2C",
"%X c #69582B",
"&X c #685B32",
"*X c #7C5531",
"=X c #745231",
"-X c #66642D",
";X c #696735",
":X c #716A37",
">X c #736E32",
",X c #7E5D40",
"<X c #7A7D45",
"1X c #841A0E",
"2X c #811E14",
"3X c #871D19",
"4X c #901F18",
"5X c #842315",
"6X c #83251C",
"7X c #8B241A",
"8X c #842A1C",
"9X c #8C2B1C",
"0X c #882614",
"qX c #9B2C1C",
"wX c #94271A",
"eX c #87341B",
"rX c #95331D",
"tX c #83250F",
"yX c #A62B1D",
"uX c #AC341D",
"iX c #971E22",
"pX c #842C23",
"aX c #8B2C22",
"sX c #832722",
"dX c #942A23",
"fX c #833123",
"gX c #8A3628",
"hX c #933425",
"jX c #92342A",
"kX c #983827",
"lX c #973B33",
"zX c #863B30",
"xX c #AC3322",
"cX c #A5372B",
"vX c #B33926",
"bX c #BF2E26",
"nX c #A51C17",
"mX c #CA3A1F",
"MX c #844729",
"NX c #8D4833",
"BX c #845633",
"VX c #95512E",
"CX c #B5452A",
"ZX c #A35438",
"AX c #AF5130",
"SX c #8D6634",
"DX c #A7663B",
"FX c #AB7B34",
"GX c #C44733",
"HX c #C84224",
"JX c #C2623A",
"KX c #8C6D47",
"LX c #AF6340",
/* pixels */
"OX XH 4.@X@X@XoXZ N k.C ;X;XD H.w O # + . X . gX-.;.U 0.. =.o.+Xp.1.jXiX4./ E.E.@XBXZX#X(.. X - . B 0 O . . * p 7X0 ! q.B.dX^ , ",
"( L L _ R K L X.o.K L ' ^ 7XT D.7.3.3.qXsX3.%X. I q.5.3.o / /._ J K 2.q.' u +.+._ 9.9X5 6 ;X9.c.5.P U I.P.gXKXXX].& @.{ : J._.i.",
"..K _ y L ) ~ X.{ K _ ' P hX' @.E @.Y q.Y _ K b.B . _ L . b 3 _ K 2 M.r.' J J 2 8 m.9X) V = R 4 n.+._ _ D.L E M.] NXd +Xh E { $.",
"q.' ' ) K 8 O.#.) { L 8 U 6X@.Y L ] ..gXX.' ' L ] _.$ B C n [ E 8.5.:.v.K +.4 2.6X2.*.m 5 5 p #.M.) ) { { _ ' / +.2.).K L K F X.",
"U.R 8 L 8 +.O.o.= ' _ Y X.kX4.L L 2.9.>.Y ! X.#.E v R K =.q.N @ 3 E 4.aXE r.4.T r.L 0 e { , + r c.#.S.| _ L 6.w.8.' B K K 4 R L ",
"-.9.[ { 8 K -.4.5 Y [ K ..fX2.$.Y ] ..9X*.2.Y 8 p.e 7 8 5.4 P C.c . R / ! ! 4.~ 4...  3 5 r u | z.Y @.X.P _ L U ' R = [ { { K W ",
"5.G o.Y.5.F U.E ~ T.sXB.B.m.kXfXlXB.tX,.jXc.- ~.t K u 9X#.' #.L Y fXf . #.r.E O V ].o   @ @ , e L U.+.7 @.{ 5 : X Z R K L ..O.W ",
"o.E ^ ..O.K 9X{ 8.X.E o.-.4.O.+.E v.O.B.4 ^.d._ L 8 ..Y 8 K 7 1 6 6X-.2Xj $ v 7 5 3 7 u.~ h.g.[.H.C S f.g.&Xa.7._ _.* E v.#.E fX",
"O X   X   O # w g & % d B $X_. X%Xf.X x _...Q ! K L ..) { ] J ' X.5.Y E K OXK 5 8 8 u v.[ u 5 = 7 5 ..aX6.@.7.2.T U l r } 4 7 , ",
"8 8 L J K { Y.+.` 7.] @.v.6.~ ..<.Y z.!.z.O.{ W 9.5.n.M._ K +.K K q.2.6.f Z . 8 8 5 R H 8 7 _ [ K [ R u.X.] ] _ L Y yX-X^.B - ^ ",
"| u | 7 X = 3 : 5 y [ | T.X.L y X  .aXk M q w . X X 4.X.L X.O.E > 3 5 c n +X8X7 J 7 o.z.{ = 8 _ 8 @.J ;.T.| +.K 7 3 V K CXi . = ",
"9Xg 1 _ ] 1.J 0.s L ! ;.HX5 L 9.q.B.P./.6X2XxXGXtX*Xq } ~ q.3 m _.%X^.p X.].2.MXd.{.$Xj.R.K.*X@X. | b _._.=X#XE.W.A.^.4.c.H F.dX",
"Q N [ 2 { ' ' 2.*X5.X.5.O.j.H.n.5.x.;.X I...v.X.O.F eX0 E ; ].{ [ K ! I...g.E n.m.$ R L E H @.+.#XJ._ ..2.X.~ sX3.Y f ^ z.M.sXM.",
"O.#X< ~ W q.4.T AXK +.K 2.y y.$ E X.i.: _ ;.5.$. .2.:.CXOXq @.L +.9.{ *.9.hXzXQ / O 4.K 4 L Y X.3.- Y Y ..2.x.9...3.[.m.~ ! ..$.",
"| ZX. E ! E J _ y.* K _ f.@.2.8X5 8.~.K 8 5.L _ ' ) K ,.C ; [ 7.) $.3.o.;.dX  2.*.* 4.Q ..' <.J d.1 X.~ ^ 0X*.n.~ t.D P.2.7...#.",
"_ I.. Y J 6 L P K -X8 q { ~ 6.F R.. * G 4 H { _ 6 P W n.C [ #.#.+...' ' 5XcX:XL 2.7 -.x.6.] _ = `.. 7.+.$.2.M.n.aXcXl O.O.9.L { ",
"K 3Xo @.K P <.` Y t. Xn.m.gX2.#.| C.X 6 ) 4.{ +.] _ X.wX^.8 { S._ E { L ! rXmX. V K o.8XL J q ^ _ _.X Y K ' N.4.v.3.0 3.! O.2.@.",
"+.9.z ! ] 6 _ L ..s.e 8.I.x.P...} 0.z ) ..O.L ] K _ ] qX}.8 ' _ +.{ X.T 5X9X0XN . K K 4.~ f.L K +.P ~._ { O.H O.X.3Xo Q o...6.#.",
"#.' oXR 8 1 ' ' 2.XXz.L 2.P.5.....K j * O.{ J 6 G _ X.gX9 H X.! ] F L hXn.kX9XbX$ ) +.4 .XX.L Y { K NX: _ X.~ ..L 0.  4.G 5.9._ ",
"5.Y NX. ' Y _ ] w.d H { +.L.x.8X{ ' p.m O X 5 K | > [ (. .>.! 2.6.M.! ! K O.l.5X].5 < f.! ;.2.L { _ t.. 5 gX4.X.F Q . / ^ ( gX6X",
"r.4.p.V X 9Xw.*.gX< R | ' J o.U.cX1 t E MX].c # Z ^.).f.* a.hXx.O.U.2.O.J ..;.=.MX X4 K ..O.hX..' ..E l . Q.X.' { v.- W K P.9.8.",
"5 /.t y.N . : ; }.W + X X X . . O t K 1 5 6 8 G.K K L *.(.c . * * + O . > , , O = ].. p L { c.| O._ , Q :XV > O @ x X - X | ..8.",
"].4 Y L 3.fX@X).S A ^ 4.4.L o.W R ! E 8 6 1 ..N { ..6 ' L t.ZXb.C.R.#X@Xj.&Xh./ =XO uX@X{.f.$Xk. X Xb.9.6.6XkXj.#X#Xj.VX*XX X g ",
"n./ -.$.O.8.5.W mXAX).. r J R 5 8 H 1 7 8 7 - e Y +.+.) ' 2...6 ' J K ' / L r G ;.* n.n.5.~ *.P.N.;.kXI.E ~ W E a.pXK / e oXg.Y ",
"9.z.r.! Q L 4.( cX~ 3X0XoX- : K #.! { r ) O O 4 W 7 8 @.! ! v.+.) ' _ X.*.L L Y x.- z.x.c.O./ ] 4 r.kX0.4.3 L ~ { r.R g p.5.Q $.",
"..~ 7X~ ~ O...#.( L X.4 Y =.M # X { R +.1 0 ; { { ) +.' E 5.8._ ' K _ X.n.L L K j.3 n.^ 5.q.M.L 2.4.8Xm.W G _ 6 ! 4 C R 4 E 8.X.",
"X...I +.#.X.) $.^ { @.K { 6 ; yX@Xl   : g O 7 1 K : { I E N.@.F _ 2 +.4.6XP ' O.i.3 pXx.4.2.] L X.~ ~ 5.{ 8 Y ..y ].o.( ^ ..{ F ",
"3 { =.[ ) +.Y 4 H L { [ K 2 K Y.1 +.R.b SX% X L G [ 9.L E 4.E K _ +.2.n.m.~ ..r #X7 O.B.X.7.@...' X.Y aX' #.8 5 l 5 H X.1 ] @...",
"G.2 5.r _ 7 ' #.^ 7.G._ { 8 = 9X) * A e 4 kX_.w   , X [ } O.K K G.9.4.v.M.= 3 O g.1 / B.Y .._ ' K ' ~ Q.L y 6 C L 1 * ! ' 5 = * ",
"5 K X._ ) 1 _ , O.' #.5 | +.Q 4 * f 7 o.E ..7 | E.g.x h.].^.j j g.m . x {.(.i.m./.  > : ; X X . . . - [.m j ^.. K 8 ; 5.K K 8 K ",
"K L Y.7 +._ ) { ;.{ _ +.] < ..t J.5 5 7 H 8 8 _ < ) o.B.~ #.L ) +.K R 9X1X/ 5.i.6 j C.a.^ ~ ^ E x.l.-.$.X.-.W _.  @ - $.K _ 7 8 ",
"* * e X X o . # w . X X @ . 0 . 5 u _ 7 O.= { ) = 5 8 $.Q ..[  .1 = R ;.fXc.! n W A.z @.K / X.X.X.:.( M.M.4.! ..fXDX!.% X : < = ",
"f c ~.- } G E &.4.O.k.d.x.~ (.  5 J : 8 1 3 _ * 8 [ [ Y *.p ) 6 * J u ~ %.L Z Q X.E.G j.K ' K X.2.6Xn.X.E R O...H U E Y g.KXg l ",
"6 K = K.# z . 4 W - < R q.w.# LXB .XH.b b S V g 0 0 0   O.X 0 l   7 * ;Xf !.K | 6 #XR x.BXh c w r n.{ * . 9 o o $ c . [.K R X.# ",
"= 7 [ 4 ! 1 2.1X& _ 8 5 4 F O [ e.4.y.% W P.( ~ { o.4.*XB t 1 @.2.h w ; 8 ) K +.2 ^ 7 L 2X9.X.O.=Xh.*.b 4.5.,.9.5.E h.O.K o.2 g ",
"8 { K W O.Q B.wX& K J K ; p.7 m.-.Y.;.l 8 s.Q K K L { E . L 8 { _ 1.% * O.) ) _ 5 5.7 ..jX2.9.3.V ..J {.E o.{ 4.z.( {.T / 5.Y z ",
"e R 5 3 8.[ o.w.g : 1 y L b L M.O.c.3.g 8 +.( +.O.8._ d.+ 4  .| } 5 /.[ 8 _ 6.6 L 3.* G jXt.X.J.` ] Y #X+.L ] ..9X;.o 8 o.{ 4 m ",
"+ 8 * 7 = 8 E H (.5 J J x ) ! E 7 2.R /.[ K W 9.G x.3 h [ -.8 _ | [ j.X o.8 7 K ..3.X @.pXr.4.8 K K ] GXX ' X.8 m.&.: < +.1 = oX",
". 8 8 ) 8 ) 8 $.CXX _ = ; z.O.! X.4.' %X, L ..Y.^ -....Xc.O.5.X.7 +.aXO ~ ~ X.4.V.q.. Y aX5.x 4.r.2XaXxX  8 @.$.5.d.7 @.7 7 7 K.",
"  6 _ @._ K [ v.*.}.r V K E O.X.M.X.2.#XX L R / Y n.w.l s./ X.L | x.yX& Q ..! c.#.@XgXX jXZ.z.4./ T 5.H |.K _ K @.g._ 5 [ , )  .",
". _ * * * | K 5.X.8Xf.7 8 p $.T 5.x.7.x.. o.m.~ P.E ..0 8.F 4.9.K m.;.l R 8.| +.2.O *.T *X-X$.~ 6.+...X.@X_ G sX8.0 { * 1 ` +.O.",
". ) ) ) 3 { / U 3 @X  2 6 { _ O.4.B.0.y.d M.M.$.O.R h 7 W ,./ ;.! X.} %XR 5.X.6.H.w.3.9.T 9 4.X.2.' %.J 7X* ..m.2.$ J [ 8 7 7 L ",
"& 8 3 4.c.X...} m i.f.X _ ` 7 X.*./ 2.3.XX- - X + z !.; ~ / N.E +.X.E zX* { D.o.= w.P.2.6.* { ' @.X.K X.0.9 5X6X7X* 3 X.6 6 K 2.",
"C O.| { - : B @X_ ,.%.Z X 6 +.K O.G n.z.A.K J Y 8.) 6 K.  , 1 8 { { K 0.O 5._ K./ 5.6.9.U.- 9.2.] T Y 6.] oXM.>.Z.H U 5.J o.@.T ",
"/.V v d j.].L K L w.K y.XX@ . X + 9X../ }.5 ) ! L 5 J J 2 n @Xd.#Xf.i < m : * .Xq c M }.<X{.+Xv d O X X . _.. 3 .X4.s.( ..> , > ",
"2.H $.* a 6 _ L ..:.5.2 K U T n.M O X - B o # .   + * 7 _ , y E 5 ] +.Z @Xj.>.3.1.~ 3.7.3.;.qXyXiXiXn.gXDXrX9X%X[.K ..E Y.{ J ~ ",
"q.m.1Xe.@.L Y X.4.*.L ! K 8.{ 4.I h H.6 K ^ X.{ 5 K 6.Q kXr.C.O | 8 c 6 R L B.5.@.L T @.2.Y.8X6Xq.>.m.hX0XxX0Xu.hX. * - m I hXkX",
"4.4.x.7X5.Y.X.~ X.Q E X.5./ *.2.^ % ) _ 8 ! K 5 8 3 : * s.F * 4 2Xj = { F } H 6X5.T.F.e.8X5X5Xn.m.M.0.5.wX5.=.~ ^.kXSX!.X 8 5.X.",
"O.6.I ~ 4.q.M.e.~ E ..8 =.I 2.8.l 5 5 , J R = [ 5 y 5 E -.W t o.3 ).X L L ~ ^ ^ 5X3.M.X.*.n.wXq.5.3.t.5.8X5X~ ).G 4.X.3.JX^.. W ",
"w * ..q.M.x.O.{ $.R d.8Xe.4 r R * < : 5 5 3 8 ; y p { 3 E F 3 +.^ eX.  .W / O.V.m.aXw.M.4.W.cX2.2.r.3.3.9X( oX3.~ 4.5.5.lX3.rXC ",
"uX:XO b /.^.XXXXf.S V q $     B e _ * [ [ 3 x.4.= ; 3 ! ^ * R s.4 *.0 3 L 8 Y 5.jXX.7.~ 2.x.9XT ] 7.3.6.^ oXpX3.5.2.9.7.jX7Xx.q.",
"t.2.+X/ ..! @.*.L K 5 y T 1 / Z.  / 8 < 8 ^ p 2 < s./ 2 O...7 p r * f - { 4 +.{ hX$.$.6.X.T.;.T P.F... X[.*.6X2.3.7.2.3.V.n.3.=.",
"<.%.m 4./ O.E 4.R 9.{ K r.E ,.[ h   X w O ,   X @   + O . .     . z 2 N . e s.L 9.G.] ] @.8.q...D.G.oX4 2.5.w.] 2.] 7.7.jX3.X.Y ",
"<.3.n z.^ / sX-.Q 5.4.! G t.^ 4 9 4 ; R #.4 #.^ 8X* , 7 Y < ..4.8 5 y _ m.m X 7 E | +.J 6 8 7 * > }.7 Y ~ 3.2X] 6.2.r.9.gXN.2.X.",
"; - ).X ' O.{ M.aXX.4.H 5.Y.4.i.8 R p , = y | 7 R ) K ) < ) 2 w.7 K +.6.T ^ ^.m M l w [.[.XXJ.N.2.wX. ) 7 } 5.o.@.6.#.@.T.M.6.{ ",
"x 3.I rXZX`.l o o O O w X | 3.> 5 o # 0 $ 0 0 o o % x o p X H.c > 7 | v., C v.+.<.{ e.Y T vX= w.t.7.MX;X%X>X;X-X$XoX_..X;X:XOX<X",
". T X.7.v.jX2Xl 2.] 1.3.6X[.p 8 J.O.O.O.R [ 8 E 0 4 1 | W.; = * ,.o 5.{ NX6 4.L.J { @.X.2.CX1 q.e.1.#X] 7.<.&.cXwX>X#.D.7.1.<.nX",
"  ] @.7.r.r.3XX 7 +._ ] L *.*Xe o.B.I.-.K K ..X.. = K J / : 8 < ) -.X.G.P.+ ..L._ ] +.' ] 7XX =.<.%.S 1.3.e.e.0.,.-X$.7.7.e.t.dX",
"b <.2.] X.P.C.6 ' +.o._ *.H AXo ! 5Xw.L O.' ..] . L X.| W e X., _ 5 @XL.8.< #.$.] ' 6.2.3.qX= 3.0.q.5 <.1.3.e.e.4X-X5.2.3.t.hXqX",
"|.2.6.X.r.Y..X..] ] ] ] X.;. XN   jXQ 2.L F 8 M.3 { L.} d.5 ! K ) y Y K.v o s.v.L 6.Y 6Xx.4X3 =.q.oX@.<.1.6.3.3.uX>XrXwX2X6XxX3X",
"OX6.3.2.4.dXg 2.Y L J Y Y ( > U SX: ;...E Y 6 C.P.n.O.4.j.x.x.aX5.*.L d.8 m.!.- w.z.r.6X0.1X= 5XcX^.] ] 1.7.3.y.GX{.0.lX7XrXvXkX",
"+X3.sX2X0XqX, 2.L ] 2.X.9X^.O.N.S.LXX 8X4.! 5._.o...z.8 A ..K E ~ ! e.S 9.X.G FXO z.5X5.Y t KXw * - <.3.3.0.2X7XuX.X2.<.4.7XN.t.",
"`.;.jX6X8XE.O.w.sXt.6Xt.cXO >.8.2.X.#X. ,.X.-.H.K | L.$.S | Y K L ' Y . M.q.B.N.7X%XX 7 OX+.P.N.3X; 4.*.9.q.N.9XyX.X] e.2.cX6X2.",
"BXE q.q.r.+X_ X.*.=.t.wX3X* >.c.2...2 ^.r =.&.b ..' #.{ |.L _ J L X.0.. o.~ pX~ X.I #XW 2.q.v.5Xd.< ' %.1.2.7.3.wXM ' 2.2.9Xr.3."
};
