/* XPM */
static char *_592741402224[] = {
/* columns rows colors chars-per-pixel */
"64 64 52 1 ",
"  c gray15",
". c #2D2D2D",
"X c #333333",
"o c #373738",
"O c #3C3C3C",
"+ c #40403F",
"@ c #444444",
"# c #4C4C4B",
"$ c #4F504F",
"% c #51514E",
"& c #4F4F50",
"* c #524F50",
"= c #545454",
"- c #585757",
"; c #595957",
": c #585758",
"> c #575959",
", c #5B5B5B",
"< c #5F615F",
"1 c #60625F",
"2 c #5F5F61",
"3 c #5F6060",
"4 c #636363",
"5 c #6A6766",
"6 c #676A67",
"7 c #696668",
"8 c #67696A",
"9 c #6B6B6B",
"0 c #716F6E",
"q c #6F706F",
"w c #71706F",
"e c #706F71",
"r c #6F7171",
"t c #737373",
"y c #787776",
"u c #767876",
"i c #787977",
"p c #787778",
"a c #757878",
"s c #7B7B7B",
"d c #807E7D",
"f c #7E807D",
"g c #82817F",
"h c #7F8181",
"j c #838383",
"k c #878887",
"l c #888789",
"z c #878988",
"x c #8B8A8A",
"c c #90908F",
"v c #908F90",
"b c #919191",
/* pixels */
"..XO&OoO#O=OO##,=#=*=@oo#;;,,3:#@o+#,,22,42444#O#:#####@@o,O ..+",
"O=:,0,,,9p59hdpp65,,,==#####=#&##4444599923,:-,,,<,@+#>##79*##@&",
"o#79pdp2u9ehksjp6tstpp84ehuet4,#,tytu9psjlss79,99,=,$#::,99t9,=O",
"O#6rshjjptkjjjjjjpstprttpp9tp2,#-ikhjjlsjjsd0t9w7$4,-==:<6366,=O",
"@#8pflklxpxxxxxxjjspspptsrsss7=#,dljkjjssjhhuqpsu44,7t4,444,42:+",
"@,tpkxjjkpxxjskkkjkspssssujjg9=#6kxjxkkjkxxjt7,tp747tpsttp9pp6,@",
"@:wjkkkjpsxxvdxlkjzhpsppsjlls9#@4dkkxlkjkxxbxbbkpksuupspeteut9,@",
"@:tfsjjhgsbbbbxxxxxjjsttkkkht6#+,hlkkkxjxxxxjxxktsu69sjp64up94:@",
"@-eshdxjikhyxjjkkhjsyyt0sppup8&@*pljjlksxxxbvxxkts977usu99sue7,@",
"@:yhjkxxtxvsjsssjjjhjjsyhjhfp7=@*9s9pkhlklxvbxxsts64e0usppspt7:@",
"@,tdjhkljbbxkxkjkkksjjpsssppt3#@&8suuspjjjvkxxljus6=29jsjptu94:@",
"@-7tsj:4t9kxljdspjjt,269tuttr,@+#7suuutjpyjjjsjpeu7:tspppy9u94:+",
"O#:76puet9869p4,<,,4,<>,=:=,&&+o@47,7,,697669454,==O#,4,=$,,#=,O",
"@:,699964977ut97847$=,##*@@#+++@@=#@#&#==:,,343=##@#@@%,><437==@",
"@:2,7467,6647,2:,,,==#@#####++@O#######:,;:,:3*#@@###@@:4,477,$@",
"#,7,,4,,,4>-===:$=,,::=,,,,:=,=,,44,:=#33,,,,3=#OO@##O@=;#4,<,##",
"$=####==$=:==@$==:,:,:247,9e979ttttt,4479q64<9,@O+###+@@@@*&=###",
"##@##:===::=##==,4696,,794tttpuuetp649,6it-==97$Oo##@O#,=@===###",
"6744796779q4,:<7769et447=4ut5tt9@7te76,969<4497=O@=:==,99,666727",
"kptuhlkssjs94,76696eu49uets649t7,6e9299tgsist4>#@@:4689sstljkksk",
"xjpusllkkhdt44296799stpsisst99pu60s8p999tspjjpt,@#4967ptpsxxxxlk",
"xksjfsppppp7,,69:#,tteup999utt66974999t9shzspsr4#=464,999hbxlxjj",
"jjgjjjxbxhu7=:74:#&==#:=###==:::,+#,4,2t6wtsp99:@=7777ithshjjjjj",
"ksssskcxjhu,,,6t6,4uu47:@@=,&##$6<474,txhjtjput,@@697thjhsssjjpk",
"s5p,tkj967p7:,6pe9tt6<4,:444,=:=4:,2,=3tter945<:@=7t9ttjs009p94p",
",;>776epput4=:9pe674-<t34,,,<:O#,=,49,,96764,:4>#=9u79thhhhte97,",
"977699pptuu4=:5te96e77;4459,,=@@==,4,=4t4,t<,:7@#+,t943tssspipu7",
"p9769uspttt2#:6tt966::,;,,9->$@@O@@##=:91=#::=##@=:5=;2typptpsjj",
"t848tt86tt91&=4t7444=@####=##@OoOO@+OO#@>==-:=:#@#&6==799667r9tu",
"-#=&=::>:,,:##,1:=##@OOOO@@@@oX.XXX+@@@=:@###@#:##=,*&,,,,:,>,,#",
"O++O@+oOO@@@@@@oOOXXooX .oooOX.X...XXXX#@X@OOO=#@@@@oO@###@@@@@O",
"@##%#@++@O@#@@@@@@@OOX.XX..X......X.XXooX.O@o@@###=Oo+@#@######@",
"@o+#,234,42644#O@:$####@@o:O.X.+..XO#Ooo#+*O+##,=#=*=@oO#:>,,,,#",
"&244459994,,::,,,<-@+#>##79=@#@#+&,,9,,,9p79jhyp67,,,*=#####:###",
",tptt9ysjxss7q,6t>=,&#::,99t9,=Oo#69psp4u90jjjss6ustuu74tsp9t4,#",
":ykhjjkshjssqqt94=4,-:=>26,66,=OO#9esjjjytjjjjjhhpstuettpuetp4,#",
",hxjkjjsdjhhu9psu74,5t3,441,4,-@@#6sgkklxpxxxxxxjjhuppptsessp6:#",
"6lkkxkjjjxxgr7,tp547tssttpeyu8,@@:tpkxjjkpxzjpxzjjkdpssssujjj6&#",
"4skjxlljkvvvvcbkpkstppspettut9,@@:ejjkkjpsxxxhxxljljpspphjkls9#@",
",dxkkxxhkxxxjvxjtsu60shp92tu94>@@:thsjksgfbbbbxxxxljjsutjjkjt6#O",
"*pkjjljsxxxbbcxkrse57usu99sut7,@@:9sjsxkukhyxjhxjjksuiqthsppp6*@",
"*9pepkjlklxxbxzsts62eqtsppsst5=@@:ujdkxxtxvsjfpsjjjhjjsidghhy5=@",
"=8puissjjjxlxxxjus9=2ehsjpwu94:@@,tsjjkljbvvllzjkjjgjjppshspt4#@",
"#7siittjspjjksjpet6-espppp9t97-+@-7tsj-4t0jkxjfspjjt<,89etete,@O",
"@47,43,867656771,%=+#,4,=#,,#=,OO==77utee6869s4,4,,2,4-<=:=,&#@O",
"#%#@#&#==:,,,4,:#=@@@@=3,3444==@@=,69e964e74tt97644==,##=@@#@O++",
"#######=,::,,,=#@O###@@-1,474,&@@:1,748625745,3=,,,=$#@#####++@O",
",,4,=:#14,,,,4=#OO@##O@=,#<4,,&##,7,,3,,33,,=&::==,,::=>:,3=:,&,",
"uett,2459e74<9,@O@@#@@#@+@&&=#@#&=####===#-==@#==:,:,=246,9t669u",
"ttp759:9uu>==67=Oo#=@O#,*@===*#####@#====:>=##:=:4666,,794tetppt",
"#4tq69267947497=O@=::=,99,9767476744769779t4,-27799et447*4pt5tte",
">999299tsdupt4:#@@:4666sstljjkskkstpjxjdpjf94,59697ep2etets949e7",
"69s7ae99tspjspt,@#4t74utusvxxxljljppskkjkhjr44,96760suuspspt96pp",
"96199999sfksssr3#=364,999hvllxkjxjsjdspsipp4,,6e>#,ttetu999ttt66",
",+&,442t6ttsp6r-@=7474pthdhjjkjjkkfjjjxbxhi4=:42:&==:#=:#=#===::",
"94442,rxhjtjsuq<O#897ujhhpssjjpljsphskvxjhu<:39t6,4tu47:@@=,&*#=",
"4-,,,=,tt9e9454:#=7t6tujse09s94ps5u,tkj967p4:,9p96tt9,4,:,47,=:=",
",:,49<,99462,:4>#=9u79thjshu9642,,,447tpptu4=:9st667-4t343,24:O#",
"==,4,:4q4,t4,=7@@+,te4,tssspppu4977699upuut7*:6te96976,4466,,$@@",
"O@@##=>r4*&:-=###&=7=>3tuuptpjjjpr46epppwtt1#:6tt989-=,,,-9:,#@@",
"OO@OOO#@-==>-&=&@#*9=:6996979rrut776tt68tt9<$=4w74,7=@#@##=##@Oo",
"XoX@@+@&=####@$-##=,**,:,,::,,,#:#=#=::,:,,:##;<>=##@+O+O+@@@oX.",
".X.XXXX#+X@+OO$#+@@@Oo@#@##@@@@OOO@O@OoOO@@@@+@ooooXoXX .OoooXXX",
" ..XXXoO..O+O@@###=Oo+#@###@###@@##%##OO@O@$#@@@#@@OoX.XX..XX. ."
};
