/* XPM */
static char *_9ea24fe11884798809bf1bcaf99c36cIl3WmLB1vsLeIxHF[] = {
/* columns rows colors chars-per-pixel */
"56 68 55 1 ",
"  c #050505",
". c #00011B",
"X c #28200D",
"o c #302411",
"O c #382C16",
"+ c #00012B",
"@ c #000233",
"# c #28033F",
"$ c #202020",
"% c #2C2C2C",
"& c gray22",
"* c #4B0103",
"= c #570104",
"- c #6F0206",
"; c #7B0307",
": c #40301A",
"> c #48381A",
", c #543C1F",
"< c #404007",
"1 c #58530B",
"2 c #5C4023",
"3 c #6B4827",
"4 c #734C2B",
"5 c #7F5030",
"6 c #085858",
"7 c #0D7070",
"8 c #484848",
"9 c gray33",
"0 c #646464",
"q c gray44",
"w c #870309",
"e c #A2050D",
"r c #AE060F",
"t c #BA0711",
"y c #875834",
"u c #8F5C38",
"i c #9B603C",
"p c #E26C1E",
"a c #9F6440",
"s c #A76844",
"d c #B37048",
"f c #BB784D",
"g c #C77C51",
"h c #848318",
"j c #CF8055",
"k c #DB8859",
"l c #E68C5D",
"z c #EE9462",
"x c #FA9C66",
"c c #FAA475",
"v c black",
"b c #128484",
"n c #989898",
"m c #FBB084",
"M c #FBB893",
/* pixels */
"vvvvvvvvvvvvvvvvvvvvvvvvvvvvvvvvvvvvvvvvvvvvvvvvvvvvvvvv",
"vvvvvvvvvvvvvvvvvvvvvvvvvvvvvvvvvvvvvvvvvvvvvvvvvvvvvvvv",
"vvvvvvvvvvvvvvvvvvvvvvvvvvvvvvvvvvvvvvvvvvvvvvvvvvvvvvvv",
"vvvvvvvvvvvvvvvvvvvvvvvvvvvvvvvvvvvvvvvvvvvvvvvvvvvvvvvv",
"vvvvvvvvvvvvvvvvvvvvvvvvvvvvvvvvvvvvvvvvvvvvvvvvvvvvvvvv",
"vvvvvvvvvvvvvvvvvvvvvvvvvvvvvvvvvvvvvvvvvvvvvvvvvvvvvvvv",
"vvvvvvvvvvvvvvvvvvvvv09988&&&vvvvvvvvvvvvvvvvvvvvvvvvvvv",
"vvvvvvvvvvvvvvvvvvvv899888&&&$vvvvvvvvvvvvvvvvvvvvvvvvvv",
"vvvvvvvvvvvvvvvvvvv9&&&%%%&&8&$vvvvvvvvvvvvvvvvvvvvvvvvv",
"vvvvvvvvvvvvvvvvvvv8sxy>$$%%&4$vvvvvvvvvvvvvvvvvvvvvvvvv",
"vvvvvvvvvvvvvvvvvvv8jxxxxxky$s$vvvvvvvvvvvvvvvvvvvvvvvvv",
"vvvvvvvvvvvvvvvvvvv8jmcxxxxmza$vvvvvvvvvvvvvvvvvvvvvvvvv",
"vvvvvvvvvvvvvvvvvvv&gyalczmaya$vvvvvvvvvvvvvvvvvvvvvvvvv",
"vvvvvvvvvvvvvvvvvvvyfq %i5%$qiyvvvvvvvvvvvvvvvvvvvvvvvvv",
"vvvvvvvvvvvvvvvvvvvdxmMmckmMmjdvvvvvvvvvvvvvvvvvvvvvvvvv",
"vvvvvvvvvvvvvvvvvvvyxxxxmkxxxjyvvvvvvvvvvvvvvvvvvvvvvvvv",
"vvvvvvvvvvvvvvvvvvvvjfzf55fzfyvvvvvvvvvvvvvvvvvvvvvvvvvv",
"vvvvvvvvvvvvvvvvvvvvjdzf$$fzd5vvvvvvvvvvvvvvvvvvvvvvvvvv",
"vvvvvvvvvvvvvvvvvvvvjgzsyyszg5vvvvvvvvvvvvvvvvvvvvvvvvvv",
"vvvvvvvvvvvvvvvvvvv igccmcxxg3 vvvvvvvvvvvvvvvvvvvvvvvvv",
"vvvvvvvvvvvvvvvvvva 5gkkfdkks> 2vvvvvvvvvvvvvvvvvvvvvvvv",
"vvvvvvvvvvvvvva$$$a  i5533333  2224443vvvvvvvvvvvvvvvvvv",
"vvvvvvvvvvvvyss%%%a   ,lsu,,   2224yyy3,vvvvvvvvvvvvvvvv",
"vvvvvvvvvvyssya>%%4a n      q 22224yy422,vvvvvvvvvvvvvvv",
"vvvvvvvvvasdiya3$$$a3 n    q 22224yy42232,vvvvvvvvvvvvvv",
"vvvvvvvvasdsuyaa>$$:a4  4:  224yyyyy42i332,vvvvvvvvvvvvv",
"vvvvvvvaadsuyyaa3$$$:iaaa,3yyyddsaiy24u4yre;vvvvvvvvvvvv",
"vvvvvvtee-yyyy3aaa$$$:aia3,iiid4444>,4uitwww=vvvvvvvvvvv",
"vvvvvteeee-y23>3iii$$$:4iy,iii3,>>>>>4ut8b78%=vvvvvvvvvv",
"vvvvt888&&;=>::>3yyy$$$:44,444a4u24:>>t9b $6&%=vvvvvvvvv",
"vvvtb7&&&&b7>:>>33333$$$$,,444a4u24:::987$&6&8%vvvvvvvvv",
"vvvb $6&&b $6::3232222$$$$O:>>2>>::O$898866%&88%vvvvvvvv",
"vv87$$6%&7$$6vv53222222$$$$$O:2,,OXX b788  &8b7%vvvvvvvv",
"vv8&66$  &66$vvv5>>OOOOOOXX$$$$XOXXXb $6   $b $6vvvvvvvv",
"vv8&&%    &%%vvv%%$$$$$  ph1<       7$&6&$$87$&6vvvvvvvv",
"vv8&b7&  &b7&vvv%%$$$$$  11<<       v66%&b78866$vvvvvvvv",
"vv8b $6&&b $6vvv%%$$$$$             vv&&b $6&8%vvvvvvvvv",
"vvv7$$6%&7$$6vvv32,::::::XX:2555552:vv;87$&6&%*vvvvvvvvv",
"vvv;66$%&&66vvv5532,>>>>>X3uiiiiii53,vr;&66$%**vvvvvvvvv",
"vvvr*%%&&&**vvv5532,>>>>>3u3,355533,,vvvy2,,:vvvvvvvvvvv",
"vvvvvj333,vvvvv5432,>>>>:3:>5uuuuu53>:vvs222:vvvvvvvvvvv",
"vvvvvi22,,vvvvv54332,>>>:::35uiiiu53,:vvv$$$vvvvvvvvvvvv",
"vvvvvv$$$vvvvvv3,::OOoXXXO235uiiiu53,:vvvvvvvvvvvvvvvvvv",
"vvvvvvvvvvvvvvvy32>>:::OXO235uiiiu53,:vvvvvvvvvvvvvvvvvv",
"vvvvvvvvvvvvvvvy32>::::OXO235uaaau53,:vvvvvvvvvvvvvvvvvv",
"vvvvvvvvvvvvvvvvy2>::::OXO235isssi53,:vvvvvvvvvvvvvvvvvv",
"vvvvvvvvvvvvvvvvy2>::::OXO25asiiisa3,:vvvvvvvvvvvvvvvvvv",
"vvvvvvvvvvvvvvvv5>>:::OOX3yiy35553yiy:vvvvvvvvvvvvvvvvvv",
"vvvvvvvvvvvvvvvyyy,::OOOX3yy3555543yy2>vvvvvvvvvvvvvvvvv",
"vvvvvvvvvvvvvvvy,:OOOOooX3322555553>22>vvvvvvvvvvvvvvvvv",
"vvvvvvvvvvvvvvvvv ooooooXX 34355533>>:vvvvvvvvvvvvvvvvvv",
"vvvvvvvvvvvvvvvvvv  XXXX   X>,>::::OXvvvvvvvvvvvvvvvvvvv",
"vvvvvvvvvvvvvvvvvvv                  vvvvvvvvvvvvvvvvvvv",
"vvvvvvvvvvvvvvvvvvv        .@#@.    vvvvvvvvvvvvvvvvvvvv",
"vvvvvvvvvvvvvvvvvv         .@@+.    vvvvvvvvvvvvvvvvvvvv",
"vvvvvvvvvvvvvvvvvv                  vvvvvvvvvvvvvvvvvvvv",
"vvvvvvvvvvvvvvvvvv        8 ....   88888888899vvvvvvvvvv",
"vvvvvvvvvvvvv0000999888&%% .@##@..  &&&&&&&88900vvvvvvvv",
"vvvvvvvvvvvvvvvvvvv00998&% .@##@.   %%%%%&8889000vvvvvvv",
"vvvvvvvvvvvvvvvvvvvvv99988          %%%&&88899000vvvvvvv",
"vvvvvvvvvvvvvvvvvvvvvvvvvvvvvvvvvvvvvvvvvvvvvvvvvvvvvvvv",
"vvvvvvvvvvvvvvvvvvvvvvvvvvvvvvvvvvvvvvvvvvvvvvvvvvvvvvvv",
"vvvvvvvvvvvvvvvvvvvvvvvvvvvvvvvvvvvvvvvvvvvvvvvvvvvvvvvv",
"vvvvvvvvvvvvvvvvvvvvvvvvvvvvvvvvvvvvvvvvvvvvvvvvvvvvvvvv",
"vvvvvvvvvvvvvvvvvvvvvvvvvvvvvvvvvvvvvvvvvvvvvvvvvvvvvvvv",
"vvvvvvvvvvvvvvvvvvvvvvvvvvvvvvvvvvvvvvvvvvvvvvvvvvvvvvvv",
"vvvvvvvvvvvvvvvvvvvvvvvvvvvvvvvvvvvvvvvvvvvvvvvvvvvvvvvv",
"vvvvvvvvvvvvvvvvvvvvvvvvvvvvvvvvvvvvvvvvvvvvvvvvvvvvvvvv"
};
